<svg xmlns="http://www.w3.org/2000/svg" viewBox="0 0 180.17 46.22">
  <title>Asset 2</title>
  <g id="d61925c5-f4d1-4b33-80dd-c0f104134f95" data-name="Layer 2">
    <g id="ecf1dc7d-961b-4073-93ee-54d420c3edb9" data-name="Layer 1">
      <g>
        <g>
          <g>
            <path d="M7.17,13.3h6.05V23.37c1.1,0,2.26.14,3.16-.53a2.32,2.32,0,0,0,.73-2.39,1.82,1.82,0,0,0-.86-1.6,4.47,4.47,0,0,0-2.5-.46V13.3a20.48,20.48,0,0,1,4.69.23,5.8,5.8,0,0,1,3.23,2.16,6.72,6.72,0,0,1,1.09,4.13,6.1,6.1,0,0,1-1.29,4.42c-.37.5-.87.66-1.3,1.09a5.5,5.5,0,0,1,3,1.3A6.38,6.38,0,0,1,25,31a8.88,8.88,0,0,1-.64,4.09v-.44a.79.79,0,0,0-.66-.1c-.3.1-.77-.13-1.06.24a14.22,14.22,0,0,1,.09-2c-.36,0-.53-.24-.76-.24-.43,0-.76.24-1.06.24v2.06c-.24,0-.34-.24-.57-.24,0-.63.13-1.29.13-1.92h-.13v1.92c-.23.14-.63-.13-.76.24h-.3v1.53a1.38,1.38,0,0,1-.57.1V37h-.63V35.31c-.1-.43-.23-.83-.33-1.2h-.67l-.3,1c-.16.16-.23.26-.23.33l-.33,1.1h-.53a.58.58,0,0,1-.2-.44H14a.94.94,0,0,1-.44.44v-1.3c-.36-.23-.66.1-1,0l-.07.07s-.06,0-.16,0a7.47,7.47,0,0,1-.1,2.26V35.74c-.37.1-.67-.1-1.1-.1V32.15c-.43-.23-1,0-1.4,0v2.93H9.1v.13c0,.07-.07.1-.2.1v2.93c-.13-1.3.1-2.6-.13-3.89v.43H7.9v2.36a1.84,1.84,0,0,0-.73-.1Zm.47,1.26.06-.06a.28.28,0,0,1,.1.23l.1-.13v.33a.12.12,0,0,1-.1,0,1.2,1.2,0,0,0-.2-.06c.1,0,.44.1.3.33a.14.14,0,0,1-.1,0c-.06,0-.1,0-.1,0a1.39,1.39,0,0,0-.1.63h.1v.1c-.23,0-.23.23,0,.33,0,.14.14.34-.1.24v.1a.68.68,0,0,0,.44.1c-.14.23-.44.1-.57.33H7.7l.1.23-.2-.13v.33a1.43,1.43,0,0,0,.64.1v-.2c0,.07.06.1.23.1-.14-.1-.14-.33-.23-.43a.38.38,0,0,1,0,.43l-.1-.2a.24.24,0,0,1-.07.13s0,0,0,.07S7.8,17.09,7.7,17l.2.1c-.1-.23.14-.3.24-.43l-.1-.1a.49.49,0,0,0,.1-.34h.1c-.24,0-.44-.06-.44-.43a.27.27,0,0,1,.17.07s0,0,.07,0l-.24-.2c0-.1-.1-.23-.1-.33l.2.1c.17,0,.24,0,.24-.1H8v-.53H8v-.1c-.14-.13-.14-.23-.24-.23s-.23-.07-.33.1C7.57,14.6,7.6,14.6,7.64,14.56Zm4.19,4.16c.1.13.1.23.33.23v.1a2.72,2.72,0,0,0-.9,0v.1H11s0,0,0,.07,0,.13-.1.16a.52.52,0,0,0-.53-.33v.1c0,.17-.07.23-.2.23a.59.59,0,0,1,.43.2c-.1,0-.2,0-.23,0l-.1-.07v.24c-.1,0-.1-.14-.24-.24,0,.14-.06.14-.2,0-.23.24-.43.2-.53.44v-.1H8.77c.13,0,.23-.1.33-.1v-.14c-.23,0-.43,0-.53.24,0-.1-.1-.24-.1-.34l.1.34-.33-.24c0,.1.13.14.16.17l.07.07c-.23.1-.4-.1-.77,0v-.24H7.6v1.73c.1.13.2.13.2.23v-.43h.1c.1.1.07.1.1.13s0,0,0,.07v-.2H7.9a.61.61,0,0,0-.1-.43h.1l.14.2c0-.07.06-.17.2-.3.09.23.23.3,0,.43.36,0,.33.3.33.53,0,0,0,0,.06,0a.31.31,0,0,1,.14-.07,1,1,0,0,1-.2.34h.2l.13.2c-.37-.24-.3.1-.66.23a.6.6,0,0,0,.09-.33H8.14c0-.37-.34-.14-.34.1h.1c0,.23.2.33.43.43v.43c-.09,0-.19-.1-.29-.1a1.52,1.52,0,0,0-.34.33c.1,0,.34-.13.44-.13l-.1.23a.4.4,0,0,1,.29-.1c0-.13.14-.23.14-.33.23,0,.43-.26.53.1H8.57c.1.23.1.43.2.67-.2.1-.3,0-.3-.24,0,.1-.14.24-.14.34l.14.1c-.23.1-.67-.2-.67.1-.23.23-.2-.2-.2-.3,0,.23,0,.43.1.53H7.6c0,.36-.26.76.1.86v-.06s-.06,0-.1-.14h.2c.1,0,.1.1.24.1,0,.37.29.2.43.1-.1,0-.14,0-.17-.1l-.06-.1c.09.1.33.1.43.2v-.33l.23-.2H8.67v.1h-.2c.1-.1.1-.23.2-.23H8.33c.14-.1.44-.3.44,0l.13-.1v.56l-.07.07s-.06,0-.16,0c.1.24.23.3.23.53H8.57c.36,0,.33.2.33.44a.47.47,0,0,0-.43.23v-.13H8.14c.23.13.33.13.43.23v.33h.2s-.07,0-.14.1l-.06.1a.14.14,0,0,0,.1,0,1,1,0,0,1,.23-.07c-.1.07-.13.2-.13.43H9c-.1-.1-.1-.23-.23-.23.36-.2.46-.43.33-.73a.24.24,0,0,0,.23-.13c-.1,0-.23.13-.33.13a1.59,1.59,0,0,0-.1-.67c.1,0,.2.1.33.1a.26.26,0,0,1-.13.24c.43,0,.33.4.43.63-.3,0-.43.33-.43.56a2,2,0,0,1,.56-.43V26.2c.3.1,0,.43.3.53v-.2c0,.1.14.2.24.33v.2c0,.14.2.14.2.24.36,0,.53,0,.76-.24h.1c0,.1,0,.14.07.14s0,0,.06,0a.79.79,0,0,1,.1-.47,1.52,1.52,0,0,0,.34.33v-.33l.2.13v.2a.8.8,0,0,1,.43-.2h-.3l.1-.23-.23-.1v.2a1.33,1.33,0,0,1-.54-.1l.67-.33c-.23-.23-.33-.43-.57-.43l.1-.1-.3.1.1-.2-.1-.1a.54.54,0,0,0,.1-.33h-.66c0-.1.1-.24.33-.34h-.43c.1-.1.23-.33.33-.43h-.23c0-.37-.23-.63.13-.86v.1h.1a.44.44,0,0,0,.1.33.55.55,0,0,1,.43-.23c-.1-.24-.2-.47-.33-.1-.23-.1-.3-.2-.2-.34h.2l-.2-.1v-.33c-.1.13-.23.33-.33.33,0-.23.23-.53.1-.76-.1,0-.3.13-.43.13s-.1-.23-.1-.33c-.37-.1-.07.43-.34.43h.34l-.1-.1h.2c0,.1-.1.3-.2.3.23,0,.43,0,.53.23H10.4c.13.1.2.2.43.1l-.13.17-.07.07.1.2-.33-.1c.1.1.06.1.1.13s0,0,0,.07H10.2a.35.35,0,0,0,.33.13c0,.1-.13.2-.13.3s.23-.1.33-.1a.44.44,0,0,1-.1.33.44.44,0,0,0-.33-.1c0-.13.1-.23.1-.33-.27,0-.57.46-.74.1a.76.76,0,0,0,.2.66l.24-.23-.24-.1c.1-.1.34-.23.44-.33v.33l-.1.1v.23c0-.1.2-.23.33-.23-.13.23.3.3.3.67l-.2-.24c-.1.14-.23.14-.23.24h.13v.09c-.13,0-.23.1-.33.1.06,0,.1-.06.1-.19s-.2.09-.34.09c0-.23,0-.36.14-.43,0,.17.06.24.2.24-.1-.14-.1-.24-.2-.24H9.86c0,.24-.13.53.24.77-.1.06-.14.16-.14.33a1.11,1.11,0,0,1,.57-.43c.1-.14.1-.24.2-.33.23.09.1.53.1.76h.23v.2l-.13-.07c-.07,0-.1-.06-.1-.13h-.2l-.1.3h.3s0,0-.07,0a.13.13,0,0,0,0,.1.29.29,0,0,0-.43,0c0-.13.1-.23.1-.33-.24.1-.4.2-.64.1,0-.1.2-.43-.1-.33V24.7c-.13-.13-.43,0-.43-.23l.43.1c-.23-.1-.29-.43-.66-.43l.1-.2a.48.48,0,0,1-.33.1c.13-.1.23-.1.33-.23v-.3c-.37,0,0-.24.23-.14A1.23,1.23,0,0,1,9,22.94a.63.63,0,0,1,.23-.43l-.33.13c.1-.13.33-.2.33-.43.1.1.3.3.43.2l.1.1c0-.1.1-.2.1-.3H9.53s.07,0,.1-.1a.21.21,0,0,1,0-.13h.1c-.1-.44.4-.34.64-.44-.1.37-.27.34-.64.24V22a.71.71,0,0,1,.44-.1v.2c-.1,0-.14,0-.17,0L10,22c0,.1,0,.1.14.23a.6.6,0,0,0,.43-.13c-.1,0-.2-.07-.33-.2.43.1.2-.44.53-.34.17,0,.23.07.23.24H10.9s-.07,0-.07.1h.43V22h-.2v.1s0,0,.07,0,0,0,.13.1c.13-.23.33-.47.43-.23a1.37,1.37,0,0,0,.34-.34.54.54,0,0,1-.2.44h-.24V22c-.23.23.1.33.24.43h0s.07,0,.07-.1a1.19,1.19,0,0,0,.86.2c-.23-.1-.3-.2-.53-.2.1,0,.23-.23,0-.23,0-.1.2-.3.1-.3s-.2-.24-.2-.47a.64.64,0,0,1-.47.13V21c.14.23.34.2.47.3v.13a1.61,1.61,0,0,0,.63-.23v-.76c-.07.1-.2.13-.43.13.1.1,0,.2-.2.3v-.2l-.23-.1c0,.1.1.2.1.3h-.34l.24-.1c0-.1-.1-.1-.24-.2-.06.07-.23.1-.53.1v.1c-.23-.1-.5.1-.86.1-.1,0-.2-.1-.34-.1h-.2c.1.2.2.23.34.1,0,.36.43.3.3.66-.24-.1-.3-.33-.44-.43,0,.1.14.2.14.43-.24-.1-.24-.1-.34-.33h-.1v-.33a.29.29,0,0,1-.06.17l-.07.06c-.3-.1,0-.43,0-.66h-.1v-.1a.26.26,0,0,0-.2-.1.41.41,0,0,0,.3-.1c.1,0,.13-.07.13-.23.3.23.3-.2.54-.1-.1.36.33.19.2-.1a.25.25,0,0,0,.06.13l.07.07a.45.45,0,0,0,.1-.34l.07.07a.28.28,0,0,0,.13.07v-.24a.34.34,0,0,0,.43,0v.1H11a.43.43,0,0,1-.33.14c.1.1.43.06.33.29.23,0,.3-.09.53-.09-.1-.1-.23-.2,0-.34v.14l.1.1c-.1.53.07.06.24,0a1,1,0,0,1,.53-.1c.1.29-.17.53-.53.53.1.1.33.23.43,0a1.7,1.7,0,0,1,.63-.43h-.43a3.48,3.48,0,0,0,.33-.34h-.33c.1,0,.13,0,.16,0l.07-.07v-.23c-.1,0-.33.13-.43.13v.2l-.1-.1a.41.41,0,0,1-.33-.1c.1,0,.33,0,.33.1.1-.23-.17-.53.2-.66a.25.25,0,0,0,.1.43h.33v-.53h-.33c-.24-.1-.3-.3-.43-.53C12,18.32,12.26,18.72,11.83,18.72ZM8.24,26.1c.09.43-.3.2-.54.2a.61.61,0,0,0-.1.33l.1-.1c0,.33-.36.67,0,.77.1.1.1.2.2.33A.51.51,0,0,1,8,27.2a1.41,1.41,0,0,1,.63.1c0,.36-.43.2-.53.1H8c0,.06.06.1.13.1h.07c.09.23-.34.23-.34.13,0,.23.24.3.34.3s.09-.43.33-.2l-.07.06a.2.2,0,0,0,0,.14,3.9,3.9,0,0,1,.53-.1c0,.1-.1.33-.1.43s.1.1.2.23H8.57a.32.32,0,0,0-.53,0c.23-.13.39.2.63.1,0,0,0,0,0,.07a.28.28,0,0,1,.07.13l.23-.1c.1.1-.1.24-.33.34,0-.24-.2-.24-.34-.1v-.14H8.24v.43H8a.58.58,0,0,0-.14-.43c0,.14.14.33.14.43-.24.14-.34.14-.44.24.3,0-.13.36,0,.43s.2.1.2.23a.4.4,0,0,0,.1-.23l-.2.1v-.2l.2-.13-.2-.1c.1-.1.34-.37.44,0v-.2h.19c0,.06-.06.16-.19.3.53,0,0-.54.43-.54l-.1.24h.2v-.24c.1.1.1.24.23.34h0s.07,0,.07-.1c0,.23,0,.43.1.53l.1-.1c.1,0,.13,0,.13.1v-.23l.2.13c0-.13.13-.23.13-.33.24,0,.2.2.2.43l.1-.33a.36.36,0,0,1-.3.56.73.73,0,0,1,.54.2c0-.13,0-.2-.1-.2a1.52,1.52,0,0,1,.1-.66v.1c-.1-.2-.07-.34.1-.44v.34l.23-.24.1.34-.23-.1c.13.23,0,.33-.1.43.23,0,.2-.23.43-.33v.23a3.74,3.74,0,0,0,.23-.43h0s.07,0,.07.1c0-.24.1-.34.1-.43a1.89,1.89,0,0,1-.43.53.45.45,0,0,1-.1-.34c.1-.1.23-.19,0-.29h.53l-.43-.44v.3c-.1.14-.43.1-.43.33-.1,0-.2-.19-.34-.09.14.23.14.43-.1.53v-.2h-.2v-.14c0-.06,0-.1-.06-.1H9.53v-.53c0-.23,0-.33.13-.33s-.06-.1-.23-.1c.3.23-.1.1-.1.33s0,.2-.1.2c0-.23-.13-.4-.13-.63h.13c-.13-.23-.23-.56-.46-.56.13-.1.23-.1.33-.2-.1-.1-.3,0-.53-.1H8.33A2.4,2.4,0,0,0,8,26.86.31.31,0,0,1,8,27l-.07.06L7.84,27s0-.07,0-.14c.17,0,.24-.1.24-.33.1,0,.1-.1.2-.1ZM7.9,22.51c-.1-.1-.3.13-.2.23S8,22.64,7.9,22.51Zm1,9.34a.24.24,0,0,0-.17.07s0,0-.06,0H8.9c0,.1-.13.2-.13.33s-.2-.13-.3-.23c0,.23-.33.23-.23,0C8,32,7.8,32,7.7,31.85c0,.3.44,0,.54.43H8.07s.07,0,.07.1h.43l-.24.2h.24v.14h-.1a.66.66,0,0,0-.23.43h.09v0l.24-.1v.2h.1c0,.23.43,0,.43.23H8.77v.1c.23.1.13.33.23.43,0-.1.1-.23.1-.33l.13.1c0-.1.1-.2.1-.3H9.1v-.33H9c0-.1.1-.23.1-.33,0,.16.07.23.23.23v-.33c-.3.1-.43,0-.33-.34,0,.1.13.1.17.14l.06.06c.1-.23-.23-.2-.33-.2v-.23c.37-.1.23-.3,0-.43H9c0-.13-.07-.2-.23-.2a.65.65,0,0,0-.1-.43A1.39,1.39,0,0,0,8.9,31.85ZM7.8,15.26h.1v.1H7.8Zm.37,8.58s.07.06.07.1c0,.23-.1.53-.1.76a.44.44,0,0,0-.34-.23c.37.1.47-.23.24-.33,0-.1.1-.2.1-.33C8.14,23.84,8.14,23.84,8.17,23.84ZM8,16.22c.1.14,0,.24-.14.24C7.8,16.22,7.9,16.22,8,16.22ZM8.14,14c.1-.1.19-.1.33,0v.34c0-.14.1-.14.2-.24a1.11,1.11,0,0,0,.56.1c.1-.1.1-.2.2-.3-.23,0-.3.1-.53.2V14c-.13,0-.43,0-.43-.23-.14,0-.23.13-.33.13Zm.33.64c-.1,0-.2-.07-.33-.2a.45.45,0,0,1,.1.33c.23-.13.53,0,.76,0s.23-.13.33-.23a.61.61,0,0,0-.43.1l-.23-.1s0,0,0-.07a.28.28,0,0,0,.07-.13Zm-.33,3.49a.62.62,0,0,0,.1-.34l.23-.23c-.17.17-.27.23-.33.23Zm.1,7.15.23.09H8.33v.24c.14-.24.14-.43.44-.43,0-.24-.44,0-.53,0Zm.33-10.41c-.17,0-.24,0-.24.1C8.5,15,8.57,15,8.57,14.83Zm-.24.43.07.07s.07,0,.17,0H8.33v.23c0-.13.14-.13.24-.23v-.1c.1,0,.33,0,.33-.1A.53.53,0,0,1,8.47,15C8.47,15.16,8.33,15.16,8.33,15.26Zm.44,2-.2.2c.1.1.2,0,.33,0-.17.43.5,0,.43.43a.26.26,0,0,1-.43-.1.55.55,0,0,0,.1.34.88.88,0,0,1-.43.53c0-.1-.1-.23-.1-.33v.33c0,.1.1.13.1.16v.07c0-.1.06-.2.2-.33,0,.23.1.33.33.33s.23-.13.23-.23H9.1a.35.35,0,0,0,.13-.33l-.13.23c-.23-.23,0-.33,0-.57h.33c0,.14,0,.34.1.34s-.23-.34,0-.44.23.07.23.24c0-.1.1-.14.1-.17v-.07c-.1-.1-.33,0-.43-.1A.42.42,0,0,0,9,17.52c0-.23.43-.1.66-.1-.23-.36-.66,0-.89,0l.13-.2h.2L9,17.09c-.1,0-.33,0-.43.13Zm0,8.65c.23.23.33.46.23.66-.1-.1-.33-.33-.43-.33C8.7,26.07,8.77,26,8.77,25.87ZM8.7,32.45l.07-.07v.34c-.14,0-.2-.07-.2-.24C8.63,32.48,8.67,32.48,8.7,32.45Zm-.13.37h.1v.1h-.1Zm.53-7.58c-.1,0-.2,0-.1-.24C9.1,25,9.23,25,9.1,25.24Zm.13,3.88c-.1,0-.13-.06-.13-.19S9.33,29,9.23,29.12Zm.43.1c-.13.24-.33.34-.56.57a1.06,1.06,0,0,0,.13-.57Zm-.19,1.17a.26.26,0,0,1,.06.16H9.1l.23.1c0,.1-.1.1-.23.2a.47.47,0,0,1,.43.34l-.2-.1c.1.23.2.3.1.53.1-.1.1-.1.33-.1l-.1-.23c.24,0,0-.44-.23-.2.1-.1.23-.24.23-.34l-.33.1v-.2a.51.51,0,0,0,.53,0,.45.45,0,0,0-.33-.1l-.1-.23c.1,0,.33.1.43.1a.25.25,0,0,0-.06-.13s0,0,0-.07a.48.48,0,0,0-.33.1S9.43,30.36,9.47,30.39Zm0-4.82c-.23-.24,0-.53-.2-.77C9.53,24.8,9.66,25.2,9.43,25.57Zm-.1,2.26c0,.23-.1.33-.1.43l.2-.1.1-.1c.13,0,.13-.13.23-.23Zm.2-12.57c0,.07,0,.1.13.1a.22.22,0,0,0-.16.07s0,0-.07,0c-.1.23.23.13.33.23s-.33.2-.43.34H10a1,1,0,0,1-.2-.34c-.1-.23-.1-.43-.23-.53A.07.07,0,0,0,9.53,15.26Zm2.4.53v.1c-.24,0-.34,0-.44.23l-.23-.23c-.23,0-.3.14-.53.14,0,.09.1.19.1.33.36-.14.13.06.13.3h-.43c-.13-.1-.13-.3-.13-.44s-.2.14-.3.24-.24.1-.34.1c.1.36-.19.33-.43.43.24,0,.33-.1.43-.1,0-.3.14-.43.44-.43,0,.1.23.33,0,.33s-.2.3-.44.3c.1,0,.34-.1.44-.1s.1.23.2.33H9.86c.1.1.44.1.67.1v.1A.79.79,0,0,0,10.3,17c.23-.1.43-.33.53-.2-.1.1-.1.2-.2.3.1,0,.2-.1.43-.1s.33.1.43.1h-.1c0-.1.1-.2.1-.3a2.67,2.67,0,0,1-.53-.23.12.12,0,0,1,0-.1.69.69,0,0,0,.07-.24c.1.14.23.1.33-.1a.38.38,0,0,0,.54-.33c-.1-.1-.34-.1-.44-.2C11.39,15.89,11.69,15.79,11.93,15.79Zm-2.6,5.42c.17-.16.17.23,0,.1ZM9.43,27c.1.1.23.24.33.24-.06,0-.1.06-.1.2l.2-.1-.2.43c.1-.1.2-.33.44-.43C10,27.2,10,27,10,26.86l-.06.07s0,.07,0,.13S9.53,27,9.43,27Zm.67-9.11c.23-.1.43.1.43.34a.29.29,0,0,1-.43.1l-.14.1a.34.34,0,0,0-.43,0c0,.1,0,.13.1.13a.11.11,0,0,0,.13,0c0,.1-.1.2-.1.33,0-.1.07-.2.2-.33s.2-.13.44-.13c0,.13.1.13.23.23h0s.07,0,.07-.1a.42.42,0,0,1,.1.33.43.43,0,0,0-.53.1,2.53,2.53,0,0,0,.86-.1v.2a1,1,0,0,1,.2-.33l-.1.13a.42.42,0,0,0-.1-.33l-.13.07s-.1,0-.2,0c.43-.37-.2-.23-.33-.23a.73.73,0,0,1,.43-.2c-.13,0-.2-.07-.2-.24h.2a.72.72,0,0,1-.43-.1c-.1,0-.2-.1-.3-.1ZM9.53,26l.13-.13c-.33-.1.1-.3,0,0C9.9,25.87,9.66,26.3,9.53,26ZM10,23.94a.33.33,0,0,0-.3-.33C9.53,23.84,9.86,23.94,10,23.94Zm-.1-3.36c.1-.13.24-.1.24-.33.23.1.23,0,0-.1l-.07.06s-.07,0-.17,0-.06-.1-.2-.1C9.66,20.38,10.1,20.35,9.86,20.58Zm.54,7.05c0-.13-.1-.23-.1-.33a1.85,1.85,0,0,1-.64.43C10,27.73,10.16,27.63,10.4,27.63Zm-.54-.43h0Zm.87-.24c0-.1.1-.33.1-.43.13.1.33.2.33.43v0s0-.07-.1-.07-.1.2-.23.34a.34.34,0,0,1-.3-.14c0-.23-.33-.16-.23-.53Zm-.1-1.19c-.33-.17-.43.43-.1.33A.44.44,0,0,0,10.63,25.77Zm.2-10.94v.33a.59.59,0,0,0-.43.2c.23-.1.43,0,.66-.2a.4.4,0,0,1-.1.3h-.33a.41.41,0,0,1-.1.33c.23.1.4,0,.63,0a.48.48,0,0,0-.33-.1.37.37,0,0,1,.56,0,.72.72,0,0,1-.23-.23c-.1-.1.23-.2.23-.1l-.13-.1V15h-.43ZM11,21c0,.1.1.43.1.53a1.27,1.27,0,0,0-.53-.1v-.13H11a.54.54,0,0,0-.56-.1C10.4,21,10.73,21.11,11,21Zm1.83,4.76a.42.42,0,0,0,.23.33.4.4,0,0,0,.3.1.67.67,0,0,1-.2.53c.1-.43-.3-.2-.53-.3a.64.64,0,0,1,.1.43c-.1-.46-.1.14-.33.2,0,.14-.1.34-.1.44s-.13,0-.17,0L12,27.4c-.1.23-.1.53-.2.76-.14-.1-.24-.1-.24-.23v.23h-.2c-.16,0-.23,0-.23-.1l-.1.1c-.1,0-.33-.13-.43.1.1,0,.33.1.43.1v.13l.1-.13c.37-.27.4.3.67.13-.14-.23,0-.33.2-.43a.44.44,0,0,0,.13.53c-.13.1-.33,0-.57.1a.39.39,0,0,0,.57.24l-.23.29c.1-.1.33-.19.43-.29v.19a.57.57,0,0,1,.43-.19h-.2v-.44a.33.33,0,0,0,.3-.13,1,1,0,0,1-.86-.3c.13-.13.33-.23.43-.33V27.4h.23c-.1,0-.13,0-.17,0l-.06-.06v-.1a2,2,0,0,1,.86-.14.37.37,0,0,0,.14.34,1.7,1.7,0,0,1,.09-.67c.24,0,.34.23.44.23v-.33h.1V27h.23a1,1,0,0,1-.13-.53c-.24-.23-.54-.2-.64-.56-.09-.1-.33,0-.43,0s-.16,0-.2,0Zm-1.2.43h-.2l-.23.23.33-.13c.1.23-.1.33-.23.43.1-.26-.46-.23-.3-.53l.2.1c0-.1-.1-.3-.1-.43C11.29,25.87,11.36,26.1,11.59,26.2Zm-.63-2h.1c0,.23.2.23.33.33l.1-.2.07-.07.13-.16c0,.1.14.1.14.23s-.2.07-.34.2a1.26,1.26,0,0,0,.67.13.54.54,0,0,1-.33.1v.34c-.17,0-.24-.07-.24-.24,0,.07,0,.1-.06.1h0a1.19,1.19,0,0,0,.34.33.55.55,0,0,1-.34.1v.14h.2c.14,0,.24.1.34.1a.09.09,0,0,1-.1-.1v-.14a.5.5,0,0,0,.33-.19c.23.23-.1.39-.23.63a1,1,0,0,1,.76-.1,1,1,0,0,0-.2-.34c-.37,0,0-.1,0-.19-.13.36.3.33.53.19,0,.17.07.24.2.24v-.53c-.1-.14-.43-.1-.3-.34h-.13a.22.22,0,0,1,.07-.16l.06-.07c.1,0,.2.13.3.13-.23-.23-.5-.13-.86-.13s-.3-.1-.53-.2L12,24.3l.17-.16h-.33v-.33l-.14.33a.18.18,0,0,1-.2-.2C11.59,24.47,11,23.94,11,24.24Zm.2-8.21c.33.06-.2.36-.1,0Zm-.1.86v0Zm.1,2.93c.23-.07,0,.33-.1,0Zm.6-5.59.07.07h-.34v.1h.1v.1h-.33v.1h.57v.13a1.12,1.12,0,0,0,.2-.33h-.2v-.07a.31.31,0,0,1,.1-.17c-.17,0-.24,0-.24-.1A.27.27,0,0,0,11.76,14.23Zm-.37,14.56c.14,0,.14-.06,0-.2C11.23,28.73,11.23,28.79,11.39,28.79Zm.2-4.09c-.23,0-.2,0-.2.2C11.53,24.9,11.59,24.84,11.59,24.7ZM11.39,29c0,.09.1.09.2.19-.13,0-.2,0-.2.14h.2c.1,0,.1-.14.24-.14-.1,0-.14-.1-.14-.13s0,0,0-.06Zm.54-13.67v-.43c-.1.23-.34.1-.44.1C11.59,15.16,11.83,15.26,11.93,15.36Zm-.44,1,.1.1v.1c.1,0,.2.1.44.1v.13c-.24,0-.34.07-.34.2.37,0,.53-.33.9-.43a.61.61,0,0,1-.33.1c0-.3-.43-.1-.57-.2s-.1,0-.13,0Zm.34,2.92c0,.1-.24.3-.34.2S11.69,19.28,11.83,19.28Zm-.34,12.57V32c.1-.1.44-.53.44-.1.43.1-.1.43-.34.43.1.24,0,.44.34.44-.1.1-.24.2-.24.33a2.29,2.29,0,0,0,.57-.67h-.33c.23-.23.29-.1.53,0-.1.1-.1.34-.2.44s0,.13,0,.16l.07.07-.2.1.1-.23a3.42,3.42,0,0,1-.33.33c.23,0,.33-.1.43-.1s.1-.23.23-.33c-.37-.1,0-.44.2-.34-.1-.1,0-.33,0-.43a1,1,0,0,1-.33-.2c.23.3-.3.47-.2.1h-.1v-.33h-.23v-.1c-.1,0-.1.1-.24.1Zm.2-11.7c-.26.2.24.3.14,0ZM12,34.54c.16-.13.16-.19,0-.19S11.89,34.54,12,34.54Zm.43-4s0-.06.06-.1,0,0,.07,0a.33.33,0,0,0-.13-.3c.13,0,.23.1.33.1,0-.23.13-.43-.1-.56v.23c-.23,0-.53.23-.66,0a.21.21,0,0,0,.13-.33c-.13.1-.13.2-.23.43C12.16,30.12,12.46,30.19,12.46,30.55ZM12,13.86h.33c-.1.1-.43.07-.33.3.13,0,.23-.1.33-.1v-.33h-.07s0,0,0-.1C12.26,13.8,12.19,13.86,12,13.86Zm0,6v.1h.13v-.1Zm.23-4.46h.43a.46.46,0,0,0-.53-.33A.44.44,0,0,0,12.26,15.36ZM12.59,26h-.33v.43c.1.1.1.2.2.3V26.3h.23v-.2l.1-.1-.07-.07a.25.25,0,0,0-.13-.06Zm-.13-1.43.23.13a.29.29,0,0,0-.17.07s0,0-.06,0c.13,0,.23-.1.33-.1s.47.44.1.54c.13-.37-.3-.1-.43-.1C12.36,24.9,12.16,24.57,12.46,24.57Zm-.1-10.17v.33c.23.1.23.3.33.43,0-.13.1-.13.1-.23l-.2-.2V14.5l.2.1-.2-.2Zm.1,15.26c.13-.1.1-.3.33-.3v-.24c-.1,0-.33.1-.43.1A.77.77,0,0,1,12.46,29.66Zm.33-8.35c-.1,0-.33.13-.33.23S12.89,21.54,12.79,21.31Zm0-3.36c-.1-.23-.43,0-.2.24C12.72,18.19,12.79,18.12,12.79,18Zm-.1,5c.23-.1.13-.43-.1-.3C12.59,22.74,12.59,22.94,12.69,22.94Zm.1,3.26c.1.23.37-.1,0-.1Zm.43,8.44c.1-.1-.1-.29-.2-.29S13,34.64,13.22,34.64Zm0-6.28v5.55a12.8,12.8,0,0,0,4-.33,2.21,2.21,0,0,0,1.49-1.73,2.7,2.7,0,0,0-.63-2.73,4.25,4.25,0,0,0-2.49-.76Zm.43-2.26c0,.23.1.53-.19.63,0-.1-.14-.3-.14-.53C13.46,26.2,13.55,26.1,13.65,26.1Zm5.42-3.26h.24l-.14.23a.48.48,0,0,1-.1-.23c0,.37-.1.43-.33.23,0,.1-.1.2-.1.3a.54.54,0,0,1-.33-.1c0,.37-.2.44-.3.67a.28.28,0,0,0,.13-.07l.07-.06h.1c0-.24.1-.44.33-.44v.24c.23-.24.5-.57.87-.34l.1.24c-.24-.14-.3.1-.44.2.24-.1.34-.2.57-.1a1.75,1.75,0,0,1-.43.2h.3v.33h-.3l-.14.1L19,24v.43c-.1,0-.33-.1-.43-.1.1.1.1.33.2.43h.13c0,.1.1.1.2.2a3.9,3.9,0,0,1-.53-.1l.2.24c-.23,0-.53,0-.63.19a.24.24,0,1,1,.33.34h-.13c-.13,0-.2,0-.2.1h.1c-.23.1,0,.43-.33.43.1,0,.13-.07.13-.2-.23,0-.56,0-.43-.33h-.13v.2l.13.13c-.23,0-.33.2-.47.3a.82.82,0,0,0,.47-.2c-.13.23-.33.3-.47.53v-.2h-.2a.64.64,0,0,0-.1-.43c0,.23.1.3.1.53-.23-.1-.33-.1-.33-.33,0,.1-.1.1-.1.23l-.1-.23h-.23a.76.76,0,0,0,.33-.53h-.23a.39.39,0,0,0-.3.1h.2c0,.1-.1.1-.1.23s.2.53.43.63v.23h-.1l.1-.23c-.23.1-.33.1-.33-.2a.68.68,0,0,1-.43.1,3.42,3.42,0,0,1,.33.33h-.53c-.1.07-.14.2-.14.44l.07.06s.07,0,.17,0v.1h.2v-.1h-.2v-.34c.23-.23.53,0,.76,0a.43.43,0,0,0-.13.34l-.3.33.1.1c.1-.1.1-.2.2-.33.13.13.43,0,.43.23h.23l-.1.2c.1,0,.2-.1.3-.1l-.1.23c.17,0,.24-.07.24-.23a1.12,1.12,0,0,0,.33-.2.61.61,0,0,1-.33.1c-.14,0-.34-.1-.44-.1s-.33-.13-.43-.23.1-.2.1-.34h.1v.24l.1-.1h.13c-.13.23.2.2.44.3-.1,0-.14-.07-.14-.2a5.38,5.38,0,0,0-.43-.34.56.56,0,0,0,.57-.1h-.34v-.23h.34c.1.1.2.47.43.23h-.23c.13-.13.13-.33.23-.43l.1.1h.1V26.3c0,.1,0,.13.1.13a.09.09,0,0,0,.13,0h-.23l.23.2h-.23a4.67,4.67,0,0,1,.33.57l.23-.14.07.07a.28.28,0,0,0,.13.07,2.69,2.69,0,0,1,.33-.34h-.43c0-.13.2-.23.33-.23-.13-.1-.23-.1-.23-.33h.53V26h-.1s0,0,0-.07a.26.26,0,0,0,.06-.16.64.64,0,0,0-.43-.1c0-.07,0-.1.13-.1-.13-.14-.23-.14-.23-.24h.53c-.23.1-.33.24-.1.34s.24-.5.24-.1c.23-.14.3-.24.43-.24.1-.23.1-.33.2-.43a2.65,2.65,0,0,0,1-.86v-.1h.2c-.14,0-.2,0-.2-.13s0,0,0-.07a.28.28,0,0,0,.07-.13v-.1H20.7c.1-.14.24-.14.34-.24-.24.1-.44.1-.54,0a.54.54,0,0,1-.33.1c-.13.24-.1.34-.33.34a.49.49,0,0,0,.1-.54c.1,0,.33,0,.33-.23,0,0,0,0,0,0s.07.07.07.1c.13-.13.33-.23.43-.33-.23.1-.53-.1-.53.2-.1-.1-.23-.1-.23-.2.56,0-.2-.33-.2-.43h.43c-.1,0-.33-.1-.43-.1a.58.58,0,0,1-.67.2v-.2c-.1.1-.46.2-.1.3ZM16.91,14.4c0-.1-.23-.24-.33-.1S16.68,14.5,16.91,14.4Zm-.1.86a.29.29,0,0,1,.2-.1c-.33-.1,0-.23-.1-.43,0,.06-.06.1-.23.1C16.81,14.93,16.81,15.16,16.81,15.26Zm.54,8c.1-.23-.1-.33-.24-.2S17.25,23.37,17.35,23.27Zm0,4s0,0,.06,0a.29.29,0,0,1,.17-.06s0,0,0,.06a.31.31,0,0,1,.07.14v-.2c.23.1.43.1.43-.14a1.47,1.47,0,0,0-.76.14Zm1.72.43h-.33c0-.1-.1-.1-.1-.23-.23.23-.53.46-.76.23,0-.1.13-.23.23-.33-.23,0-.3.1-.53.1,0,.1.1.13.13.13s0,0,.07,0v.1l-.1.1h.2c0,.1-.07.2-.2.33.1,0,.43.33.53.1a.54.54,0,0,1-.33-.1c0-.37.43-.33.66-.43l.1.33c-.23-.16-.33-.13-.33.1h.13v.33c-.13.1-.23.1-.33.2.1,0,.33-.1.43-.1l-.06.07s0,.07,0,.13a.31.31,0,0,1,.14.07l.06.07h-.1c0,.13.07.19.2.19a.94.94,0,0,0,.23.44c.1.1.1.33.2.43.24-.1.34-.2.44-.2v-.13c0,.1,0,.13-.1.13s-.07,0-.1,0c-.24,0-.1-.23-.24-.33l-.1.1.1-.2H19a1.15,1.15,0,0,0-.1-.57l-.13.14v-.24h-.1v-.2c0,.07,0,.1,0,.14l.06.06c.23,0,.33-.1.43-.1-.1-.1-.1-.23,0-.23v-.1c0,.07-.06.1-.2.1v-.2h.34c-.14-.1-.14-.23-.24-.23L19,28l-.14.17.1-.23-.19.06-.14.07v-.33a.35.35,0,0,0,.43,0,.68.68,0,0,0,.44.1c-.1-.1-.2-.1-.34-.2s0-.1.07-.2l.07-.13c-.17,0-.24.06-.24.2-.1-.1-.2-.1-.33-.2C18.87,27.4,19,27.63,19.07,27.73Zm-.86-9.64v-.44c0,.14-.1.2-.33.2C18,18,18.11,18,18.21,18.09Zm.33,9.21h-.23c-.3.1.13.33.23.2Zm-.33-13a.67.67,0,0,0,.43.1.49.49,0,0,1-.1-.34l-.23.1.13-.2h-.06a.35.35,0,0,0-.17.1Zm.53,1a.18.18,0,0,0-.2.2.68.68,0,0,1,.43-.1,2.55,2.55,0,0,0-.23-1c-.3.1-.53.16-.53.53C18.54,14.93,18.44,15.46,18.74,15.26Zm-.2,10.61-.23.13a.89.89,0,0,0,.56-.13c-.13.23-.23.33-.23.43-.1-.1-.2-.1-.33-.2a.44.44,0,0,1-.1-.33A.41.41,0,0,1,18.54,25.87Zm-.33,8.34s0,0,0,0,.07.06.07.1c.33.06.17-.54-.1-.44Zm.1-7.91h.13l.1.13v.1h-.23Zm.43,8.34c.23.14-.3.24-.2.34h.1a.31.31,0,0,0,.23-.1v-.44c0,.1-.33.1-.23.2Zm.87-16c.13,0,.2.1.43,0,0,.23-.2.33-.43.23s-.1-.13-.2-.23-.1-.1-.24-.23c0,.13.14.23.14.33a.49.49,0,0,1-.34-.1v.23c.07.07.2.1.44.1v.43c-.37,0-.3-.33-.54-.43s-.33.13-.33.43a1.59,1.59,0,0,0,.63.2.59.59,0,0,1,.77-.2V19h.43c0-.23.13-.33.13-.56a.48.48,0,0,1-.33-.1c-.13.1-.33.46-.43.1C19.74,18.52,19.61,18.52,19.61,18.62Zm-1,15.82a.52.52,0,0,0,.23-.43l.2.1c-.1-.23-.29-.1-.53-.1A.61.61,0,0,1,18.64,34.44ZM18.91,33a.29.29,0,0,1,.06.17c0-.37.34-.23.44-.1l-.24.1a.31.31,0,0,1,.24.1c.13-.14.23-.2.33-.2-.13-.13-.23-.13-.33-.23l.1-.1c-.14,0-.2.06-.2.2a.85.85,0,0,0-.34-.2c-.06,0-.1.06-.1.2S18.87,33,18.91,33Zm.8,1.13-.1.1v-.1a.2.2,0,0,1-.14,0L19.41,34a4,4,0,0,0-.54.34h.44v.09a1.79,1.79,0,0,1,.63-.23.4.4,0,0,0-.1-.3S19.81,34,19.71,34.11Zm-.54-7c0-.23-.3,0-.2.14A.24.24,0,0,0,19.17,27.06Zm-.1-9.64.1.1c.14-.1.34-.3.24-.53v-.1a3.48,3.48,0,0,0-.34.33C19.17,17.22,19.07,17.32,19.07,17.42Zm.77,8.45c0,.13-.1.23-.1.33v-.33l-.13.13v.2h-.2a.09.09,0,0,0,.1-.1V26c-.5-.1,0,.43-.34.53.24-.1.44.2.67.33,0-.13.1-.23.1-.33h-.33c0-.1.13-.23.23-.33,0,.1.07.2.2.33V26.2l.23-.1v.2c.23-.1-.1-.3-.1-.53a.68.68,0,0,0,.43.1l-.66-.3c0,.23.1.3.23.43A.35.35,0,0,1,19.84,25.87Zm-.53,6.41c.23,0,.23-.56-.14-.33A.43.43,0,0,0,19.31,32.28ZM20,22.74c-.1,0-.17,0-.2,0l-.1-.07c0,.1.1.1.1.2l-.13.07a.35.35,0,0,1-.2,0c-.1-.1-.47-.43-.1-.43l.1.13c.1-.13.23-.23.23-.33A1.22,1.22,0,0,1,20,22.74Zm-.63,7.58c.36,0,.33.43.63.43v.34a.4.4,0,0,0-.3.1c.1,0,.43-.14.3.23h-.3l-.13.1-.07-.07s0-.06,0-.16h-.1l-.1-.1h.2v-.34c-.37.14-.2.34-.2.57h.2c0,.1-.1.1-.2.2.1,0,.2.1.3.1a1.16,1.16,0,0,0,.43.33c0-.23.13-.4,0-.63.23.1.33.27.23.43h.33l-.06.07-.17.13c.13,0,.23.27.33-.1v.33a.42.42,0,0,1,.24-.33c-.1,0-.14,0-.17-.1l-.07-.13a.45.45,0,0,1,.34-.1.58.58,0,0,0-.54-.43l.1-.2c-.13.13-.23.2-.33.2v-.54a.68.68,0,0,0,.43-.1c0,.1-.1.2-.1.3h.1v.24h.1l-.1-.1h.1a.86.86,0,0,1,.14-.57H21c0-.1-.24-.1-.34-.1l.1-.1v-.1c-.1.1-.2.1-.3.2v.1c-.23,0-.46,0-.56-.2v.2c-.1-.1-.23-.3,0-.43h-.2c0,.23,0,.37.1.43C19.61,30.42,19.47,30.39,19.41,30.32Zm.2.33c0-.1-.2-.1-.3,0S19.74,30.89,19.61,30.65Zm.23-3.59c.1,0,.2-.1.33-.1v.24h-.43c0,.1-.13.3-.13.43h.23c-.1.1-.1.3-.23.43.13,0,.23-.13.33-.23v.23c.1,0,.33-.13.33-.23a.79.79,0,0,1-.23.66l-.1-.23h.23c-.13-.23-.66-.2-.56.1l.23-.1.1.1c-.1,0-.47.1-.1.33-.1.1-.33.24-.43.34.23,0,.33.09.1.33h.23l-.13.1h.33l-.1.2a.91.91,0,0,1,.43-.1.54.54,0,0,1,.53-.34.3.3,0,0,0-.2-.1c-.1.1-.2.34-.43.24l.1.2c-.1,0-.23-.1-.33-.1.1-.3,0-.37-.2-.24V29a3.07,3.07,0,0,0,1.06-.34c-.1-.23.14-.2.24-.33a.45.45,0,0,0-.1-.3,1,1,0,0,1-.34.2h.1v.33a1.12,1.12,0,0,0-.33.2c-.1.14-.3,0-.53,0,.1-.1.2-.1.33-.2H20v-.1c.13,0,.33.1.56.1l-.33-.1.07-.06a.22.22,0,0,1,.16-.07c-.1-.07-.13-.13-.13-.2v-.23h.23c-.1-.1-.33-.1-.43-.2s-.23-.23-.33-.23v-.2c.13,0,.2,0,.2.1.13-.1.13-.2.23-.2s0,0,0,.06a.23.23,0,0,1,.07.14h.13c-.13-.24.1-.3.2-.54-.1.1-.3.1-.53.2a.6.6,0,0,1,.2-.43h-.1c-.1.1-.2.33-.43.23Zm-.43,6.52h.2v.2h.33v-.86a.73.73,0,0,0-.1.43C19.74,33.48,19.51,33.48,19.41,33.58Zm.33-14.53c-.13.23-.13.23-.23.23C19.41,19.05,19.51,19.05,19.74,19.05Zm0,5.32c-.13.1-.23,0-.23-.13S19.74,24.14,19.74,24.37Zm0,2.69c.1-.1,0-.2-.13-.1S19.61,27.2,19.74,27.06Zm.2-12.13h-.1l.1.1v.23c.1,0,.23-.1.33-.1v.1c.1,0,.2.1.43.1a.91.91,0,0,1-.43.1v.13c.23-.13.33,0,.43.2l-.2-.1c0,.1.1.2.1.34l.1-.14c.24,0,.24-.2.34-.43H21a.31.31,0,0,1-.17-.1,1.22,1.22,0,0,1-.3-.43.26.26,0,0,1-.06.16l-.07.07a1.62,1.62,0,0,0-.43-.56Zm0,7.91c0,.1.1.1.23.23-.1.07-.2,0-.33-.13Zm.33-4.12c-.23,0-.23-.1,0-.2C20.4,18.65,20.4,18.72,20.27,18.72Zm.23,1.2a.28.28,0,0,1,.14.06s0,0,.06,0a.42.42,0,0,1-.33.24,2.24,2.24,0,0,0,.87-.1v-.33c-.2-.1-.47.33-.54,0-.23-.1.1-.34.24-.34-.14-.1-.24,0-.34,0C20.6,19.72,20.5,19.82,20.5,19.92Zm.54-2.4v-.1c-.1-.1-.44,0-.34.23C20.8,17.65,20.94,17.52,21,17.52ZM20.7,27.93s0,0,0-.07a.25.25,0,0,0,.06-.13c0,.1.14.1.14.2a.34.34,0,0,0,.1-.2.49.49,0,0,1-.34-.1ZM21,18.19c0,.23,0,.43.1.53-.1,0-.2.13-.34.13V19a4,4,0,0,0,.57-.23h.3a.4.4,0,0,0-.3-.1c-.13-.1-.23-.1-.23-.23v-.2Zm.53,12.56c-.23,0-.43.1-.43.24S21.57,31,21.57,30.75ZM22.76,32c.07-.07.1-.1.14-.1H23V32a.42.42,0,0,1,.24-.1v-.07a.29.29,0,0,1,.1-.16,1,1,0,0,0-.54-.1l-.06.07s-.07,0-.17,0v-.87h.14a.75.75,0,0,0,.09-.43h-.33l.07.07s.07,0,.17,0v.13a.56.56,0,0,1-.44-.23.25.25,0,0,0-.06-.13l-.07-.07c.23-.13.33,0,.43.1V30l.23.13v-.23h-.33l-.1.1v-.33c.24-.1.43.13.53,0a.32.32,0,0,0-.43-.1c-.1-.24-.3-.2-.53-.1v.2h-.23c.23,0,.43,0,.43.23-.1,0-.3.1-.43.1v-.2c0,.1-.1.2-.1.33h.53l-.3.3h-.43c.23.13.3.23.53.13-.1.1-.43.54,0,.44v.2l-.1-.1v.1H22c-.13,0-.2.06-.2.23.1,0,.2-.13.43-.13s.1.23.2.33h-.1v-.1H22v.1h.1v.23a.21.21,0,0,0-.13.07s0,0-.07,0h.33l-.13.2h.07s.06,0,.06-.1c.24.37.63.2.87.43L23,32.42a.31.31,0,0,1-.07-.14h.14c-.1,0-.14-.06-.14-.23a.43.43,0,0,1-.53.1s0,0,0-.1l.1-.1Zm-.43-1c0,.1-.33,0-.23-.24S22.57,30.75,22.33,31Zm.77-1c0-.13,0-.2-.14-.2C22.86,30,23,30,23.1,30Z" style="fill: #e7326e"/>
            <path d="M26.52,13.2H32.7V24.47a38.06,38.06,0,0,0,.14,5.22,4.66,4.66,0,0,0,1.39,3.23,3.36,3.36,0,0,0,2.26.89,4.17,4.17,0,0,0,2.63-.66,3.69,3.69,0,0,0,1.3-1.73c.1,1.43,0,2.89.1,4.32a2.59,2.59,0,0,0-.87-.1,2.18,2.18,0,0,0-.1-.86c-.13-.24-.33-.3-.33-.53h-1v.19a3.48,3.48,0,0,0-.33.34v-.34c0,.3-.13.44-.43.34a9.55,9.55,0,0,1,0,2.39.73.73,0,0,1-.43.1V34.68c-.24-.14-.43-.1-.57-.33-.53-.24-1.06,0-1.63,0,0,.36-.3.19-.53.19v-.29c-.23-.14-.1-.54-.2-.77H32.7c0,.23-.1.4-.1.77h-.33v-.67c-.1,0-.1-.1-.2-.1v-1.1h-.86V30.75a6.93,6.93,0,0,0-1.43-.1,3.2,3.2,0,0,1-1,.1v3.5c-.1,0-.23.1-.33.1v-.54c-.23,0-.2-.23-.2-.46h-.43v-.63h-.33v-.54a3.49,3.49,0,0,1-.77-.56,36.25,36.25,0,0,1-.23-5Zm.66,1v-.47h.43a1.27,1.27,0,0,0-.53-.1A1.17,1.17,0,0,0,27.18,14.2ZM28,31.09c0,.16-.07.23-.23.23h.06s.07,0,.07.1c.06.33.3,0,.53.1a1.16,1.16,0,0,0-.23-.63c-.24.1-.3.2-.43.2Zm.2-14.87c-.1,0-.2,0-.1.24C28.15,16.46,28.28,16.46,28.15,16.22Zm0,5.86c.13,0,.23-.1.33-.1h-.1c0-.1.1-.1.1-.2l-.07-.07s0-.07,0-.17h-.23c0-.1.13-.2.13-.33s-.13.13-.23.13A1.89,1.89,0,0,0,28.15,22.08Zm-.1,8.67a1,1,0,0,0,.66-.53c-.13,0-.23.1-.33.1C28.28,30.55,28.15,30.52,28.05,30.75Zm.23-15.16c.23,0,.23-.43,0-.33S28.05,15.69,28.28,15.59Zm.43,13v.34c.1,0,.2-.1.3-.1h-.2c0-.1.1-.14.1-.17v-.07c-.23,0-.43,0-.53.1C28.48,28.69,28.58,28.59,28.71,28.59Zm0-14.39a.88.88,0,0,0,.43.53c0-.1-.13-.33-.23-.33a.33.33,0,0,0,.43-.1H29a3.48,3.48,0,0,0,.33-.34c-.23,0-.43,0-.43.24Zm.3,1.92c0,.24.13.3.23.54-.1,0-.23.13-.33.13.1,0,.33.1.43.1a.5.5,0,0,0-.43.23l.1.1V17a.53.53,0,0,1,.43.13c0-.23-.1-.33,0-.56-.1-.1-.2-.1-.3-.2a.26.26,0,0,0-.06-.17Zm.33,13.14c.24.23.1.4,0,.63a.31.31,0,0,1,.17-.1h.07v-.33h.2l-.07.06s0,.07,0,.17H30c-.23-.23,0-.53.2-.76-.1.23.1.43.33.19-.1-.09-.2-.06-.2-.29a.79.79,0,0,0-.56.53h-.2c.1-.43-.2-.63-.57-.87A1,1,0,0,1,29.34,29.26Zm.67-2.4c-.1.24-.43,0-.43.2.1,0,.33-.1.43-.1v-.1a2.92,2.92,0,0,0,.1-1c0,.1-.1.1-.1.2v.33h-.23c.13-.1,0-.3,0-.53C29.78,26.2,29.58,26.63,30,26.86Zm-.1-3.79a.13.13,0,0,0,.13.1h.07a1.23,1.23,0,0,0,.43.34c0-.24-.1-.34-.33-.34,0-.1.13-.1.23-.2H30c0-.13-.23-.46-.33-.23C29.78,22.84,29.91,23,29.91,23.07Zm-.13-8.87v.3c0-.1.13-.1.23-.2,0,.1-.1.33-.1.43s-.23.43.1.43l-.1.2H30v-.2h.53s0,0,0-.07a.22.22,0,0,0,.07-.16l.13.33c0-.1.1-.2.3-.33-.1.36.1.23.34.23l-.1.2.33.13a.54.54,0,0,0-.43.2h.1c.23-.1.43-.1.53,0s-.1.23-.1.34a.41.41,0,0,1,.33-.11l.07-.06a.28.28,0,0,1,.13-.07c-.1-.1-.23-.2,0-.3-.23,0-.43.2-.53.1v-.43c.1-.23-.23-.47-.33-.1l-.2-.23v.33h-.14a1.13,1.13,0,0,0,.14-.66.44.44,0,0,0,.1.33.91.91,0,0,0,.43-.1.91.91,0,0,1-.23-.43c-.3-.1-.5-.34-.87-.44,0,.07,0,.1-.07.1h0c-.1,0-.2-.1-.33-.1S30,14.3,29.78,14.2Zm0,6.05.13-.1v-.1c.1-.13.2-.1.2-.33-.1,0-.1-.14-.2-.24A1.37,1.37,0,0,0,29.78,20.25Zm.43-.53v.2h-.1v.13a.2.2,0,0,0,.1.2v-.2a.24.24,0,0,1,.16.06s0,0,.07,0,.1-.33.1-.43Zm.33,1.06v-.3h-.33v.07s0,.06-.1.13C30.34,20.68,30.44,20.78,30.54,20.78Zm-.33,2c.13-.23.33-.33.43-.2s.23.3,0,.43c.23,0,.33.1.57.2h-.34a.45.45,0,0,1-.1.34.41.41,0,0,1,.1.33c.1,0,.2-.13.34-.13-.24,0-.44-.44,0-.44-.14.14,0,.24.1.34-.24-.24,0-.34.1-.44h-.2c0-.23,0-.56.3-.33.13-.1.33-.2.33-.43h-.1c-.07,0-.1.07-.1.23,0-.1,0-.33-.23-.33s-.1.23-.2.23-.14-.33-.24-.56h0c0,.1-.1.23-.1.33-.1-.1-.1-.33-.23-.33A6.63,6.63,0,0,0,30.21,22.74Zm.33-8.11h.1a.31.31,0,0,1,.13.3.84.84,0,0,0-.33-.2C30.44,14.66,30.47,14.63,30.54,14.63Zm.53,7.68c0,.23-.3.23-.43.1S31,22.21,31.07,22.31ZM31,20.15h.1l-.1.1h-.2c.1.1.2.23.3.1-.1.13-.1.23-.2.33h.2a.28.28,0,0,1,.07-.13l.07-.07c.1-.23-.14-.33-.24-.56Zm0,6.61.1.1h-.3a2.34,2.34,0,0,0,.2.54v-.34a.45.45,0,0,0,.34-.1h-.24v-.2Zm0-1c-.1,0-.23.43,0,.43S31.07,25.9,31,25.77Zm0-3c.24-.1.24.33,0,.23Zm.44-.66c-.1-.3.23-.24.33.13,0-.13.1-.23.1-.33a.13.13,0,0,1-.2,0c-.13-.1-.33-.34-.43-.1C31.44,21.88,31.41,22,31.41,22.08Zm-.1,5.85h.1l.06-.1a.31.31,0,0,1,.17-.1c-.13-.1-.13-.23-.23-.23S31.31,27.69,31.31,27.93Zm.76-11.71c-.23,0-.56-.13-.56.24A.68.68,0,0,0,32.07,16.22Zm-.33,10.84c.23.14.33.2.33.44l-.56-.2c.16,0,.23.06.23.2v.33h-.1v.1h.1a1.29,1.29,0,0,0,.1-.53.35.35,0,0,0,0,.2l.07.13.23-.1-.1.3.1-.1v.33l.1-.1a3.35,3.35,0,0,1,0-1c-.1-.23-.2-.3-.2-.53-.13.1-.37.1,0,.23C32.17,26.86,31.9,27.43,31.74,27.06Zm.2-8.21h.13l.07-.07a.25.25,0,0,1,.13-.06c-.1-.1-.1-.2-.2-.43h.2a.61.61,0,0,1-.33-.1C32.07,18.42,32.17,18.72,31.94,18.85Zm.66,13.33c.24-.13-.1-.33-.23-.23S32.5,32.28,32.6,32.18Zm.33.2a.25.25,0,0,0-.06-.13s0,0,0-.07c-.24.1-.24.27-.24.64,0-.1.24-.1.33-.1-.09.1-.23.2-.23.33a1.63,1.63,0,0,0,.77-.13v-.2c-.1,0-.34.13-.34-.1H33a.49.49,0,0,1,.1-.34c0-.1-.06-.2-.2-.33Zm0-.43c0-.17-.06-.2-.23-.1C32.7,31.92,32.77,32,32.93,32Zm4.66,2.4c-.1-.24-.33-.24-.43-.1S37.49,34.44,37.59,34.35Zm2-.67c.1.23.07.57.3.43v.14c-.3-.14.13.19.13.29a2.48,2.48,0,0,0,0-.86ZM41,13.2H47V28.39a14.16,14.16,0,0,1-.56,4.86,5.66,5.66,0,0,0-1.3.1v.33c-.07,0-.1,0-.1.07v.06a12.44,12.44,0,0,0,0,1.93c-.1.23,0,.53-.23.77,0-1.57-.1-2.9-.1-4.46-.37,0-.5.13-.87,0v0s0-.07-.1-.07-.13.3-.23.53a.46.46,0,0,0-.33-.1V32a.72.72,0,0,1-.43-.1v.2c-.1,0-.1-.1-.14-.1h-.06c-.24,0-.3.1-.53.1,0,.37.13.67-.24.77-.1,1.19,0,2.39,0,3.69-.1-.1-.1-.24-.2-.24l-.06.07a.29.29,0,0,1-.17.07c-.1-.24-.07-.54-.43-.77Zm.53,8.14h.13a1.75,1.75,0,0,1,.3-.56l-.1.13v-.23a1.23,1.23,0,0,1-.43.33C41.48,21.11,41.61,21.21,41.48,21.34Zm-.1,11.38a.85.85,0,0,0,.23-.87h.2a.41.41,0,0,0-.33-.1A3,3,0,0,0,41.38,32.72Zm.43-1.4c-.1-.13-.33-.13-.33,0S41.71,31.42,41.81,31.32Zm.1-4.36c0-.1-.2-.2-.2-.1S41.81,27.06,41.91,27Zm.43.34a.09.09,0,0,0-.1.1C42.34,27.5,42.48,27.4,42.34,27.3Zm.24-12.47h.33l.1.1c0,.16,0,.23-.1.23.23,0,.4.2.63.1-.23,0-.33-.1-.33-.33-.3-.1,0-.3.13-.43a.79.79,0,0,0-.43.23C42.78,14.73,42.58,14.73,42.58,14.83Zm1,.43v-.33l.1.13c.17-.17.23-.27.23-.33-.23,0-.43-.27-.53.1C43.34,14.93,43.31,15.26,43.54,15.26Zm.57-.1a.41.41,0,0,0-.47,0C43.64,15.39,44,15.26,44.11,15.16Zm.73-1.2-.1.1a.6.6,0,0,0-.43-.2c0,.1.1.1.1.2h.66l-.1-.2L45,13.8a.21.21,0,0,1,.13-.07,1.11,1.11,0,0,0-.63.13A.45.45,0,0,1,44.84,14Zm0,.87h-.2l.1.1h-.2v.13h-.13v.1a.22.22,0,0,1,.16.07s0,0,.07,0v.23c.23,0,.2-.1.2-.33a.64.64,0,0,0,.43-.1v.3h.07s.06,0,.06-.1v-.2h.1c.07,0,.1,0,.1.1l-.1-.33.2.1.07-.07a.28.28,0,0,0,.07-.13c-.24,0-.34.1-.44.1l.1.23c-.1,0-.33,0-.43-.13l-.13.06a1,1,0,0,1-.2.07c.1-.13.23-.23.23-.33h-.13c0-.43.23-.1.33,0,0-.43.2-.1.43,0,.1-.17,0-.33-.2-.43h-.13l.07.06a.28.28,0,0,1,.06.14h-.33c-.1-.1-.1-.2-.23-.2Zm-.1.43a.18.18,0,0,1-.2-.2C44.77,15.06,44.74,15,44.74,15.26ZM45,31.62c0,.16.07.23.2.23s0-.23-.1-.33Zm.2-3.79c0,.1.1.2.1.43h.13a.67.67,0,0,1,.1-.43Zm.1,4.89v.1h.67c-.37.1-.34-.2-.44-.34C45.6,32.65,45.54,32.72,45.27,32.72Zm.5-18.92.07.06c-.24,0-.24.2-.34.34s.07.1.14.1h.06a.7.7,0,0,0,.14.43c0-.23.1-.43.1-.67,0,.1.06.2.2.34.13-.1.46-.2.46.1a.58.58,0,0,0-.13-.44c-.1.37-.33,0-.44-.1h.57v-.1h-.46l-.07-.06s0-.07,0-.17a.91.91,0,0,1-.43.1A.22.22,0,0,1,45.77,13.8ZM46,17.32c.11-.1-.33-.36-.33,0C45.7,17.42,45.94,17.42,46,17.32Z" style="fill: #e7326e"/>
            <path d="M48.62,13.23h6.19V33.28a15.57,15.57,0,0,0,3.26-.2,6.05,6.05,0,0,0,3.79-2.72,8,8,0,0,0,1-5.29,6.89,6.89,0,0,0-1.93-4.46,6.06,6.06,0,0,0-4-1.73H55.24V13.23a23,23,0,0,1,4,.13,11.51,11.51,0,0,1,7.58,5,13.9,13.9,0,0,1,1.4,13v-.66a1.47,1.47,0,0,0-1.06-.1,1.69,1.69,0,0,1-.1.76c-.14.24-.24.3-.24.43v1.5h-.43v-.53h-.33c-.63.1-1.2,0-1.83.1v.76c-.37.1-.63-.23-1,0-.23,0-.43.1-.73.1v-.53h-.43V33c-.23-.23-.43.1-.43.2H60.33v3.46h-.44c-.1.13-.1.23-.19.33h-.24c-.1.1-.1.2-.2.43H58.4c-.1.24,0,.54-.1.77a22,22,0,0,1,0-2.93,3.55,3.55,0,0,0-1.86,0v.33h-1.3V37.5c-.23,0-.67.24-.53-.2a1.59,1.59,0,0,1-.67-.1c-.43,0-.83-.13-1.19.1h-.44c-.23.24-.3.34-.53.34a24.91,24.91,0,0,1-.1-2.73H49.29v2.93h-.53a3.83,3.83,0,0,0,0-1.07,1.47,1.47,0,0,1-.14-.76Zm.57,5.09h-.13a.29.29,0,0,0,.06.17l.07.06c.1-.1.1-.23.2-.33a.48.48,0,0,1,.1.33c.13,0,.23-.1.33-.1s-.33-.13-.2-.23.33-.1.33-.2a.44.44,0,0,0-.33.1C49.39,17.89,49.19,18.09,49.19,18.32Zm3.26,2.39h-.14v.53c-.1-.09-.33-.19-.43-.29-.1.1-.1.2-.2.29,0-.23-.23-.19-.33-.09,0-.1,0-.34.1-.34s.23.14.33.14l.2-.24c-.23.1-.3.24-.53.1a1.27,1.27,0,0,0,.1-.53c-.23,0-.1.33-.1.43s-.2.1-.33.1-.3.14-.44,0-.53,0-.53-.3h.1c0-.13-.1-.13-.1-.23a.71.71,0,0,0-.2.53c-.13-.1-.23-.1-.33-.2,0,.1.1.1.1.2s-.23.14-.33.14a1.26,1.26,0,0,0-.2-.57,4.84,4.84,0,0,1-.13,1.43c.13,0,.23-.1.33-.1,0-.17-.07-.23-.2-.23a.28.28,0,0,1,.2-.1c-.1-.14-.1-.23-.2-.23.23-.1.63,0,.63-.34L50,21c.14,0,.2-.07.2-.24a3.35,3.35,0,0,1-.1.53,2.28,2.28,0,0,1,.44-.09l-.24-.2c.14,0,.33.1.43.1-.06,0-.16.06-.29.19.1,0,.19.14.29.14a.25.25,0,0,1-.06.13s0,0,0,.07-.09-.1-.09-.2a.26.26,0,0,0-.17.06s0,0-.07,0l-.3.33h.1V22l-.1-.1c0,.1,0,.13,0,.17l.06.06c.1,0,.34-.13.44-.13l.09.13c-.09,0-.19.1-.43.2h.34c-.1.1-.27.33.09.23-.23-.23,0-.43.24-.56h-.24v-.07s0-.06.1-.13a.45.45,0,0,0,.34-.1,1.52,1.52,0,0,1,.43-.47v0c.1,0,.43,0,.53.14-.1.1-.3.2-.43.33.23.23.56,0,.66-.23.1,0,.44,0,.44.23v-.23a.45.45,0,0,0,.33.1v-.2a.48.48,0,0,1-.33.1v-.67a.19.19,0,0,0,.2.14A.11.11,0,0,0,53,21l-.1.1c-.43.36.2,0,.2.33v-.33c.1,0,.23.1.33.1V21c.1,0,.2-.14.33-.24a.79.79,0,0,0-.66.1v-.3c-.1-.13-.33,0-.43.1v-.23h.23l-.13-.2c-.14.13-.24.2-.3.2Zm-3,1.53s0,0,0,.07,0,.1.13.13c-.1,0-.2,0-.23,0l-.1-.07a.5.5,0,0,0,0,.53V23h-.1c0,.26-.27.86.1,1a1.2,1.2,0,0,1,.1-.86c.1.23-.13.53.23.53a.68.68,0,0,0,.1.43c-.43.1-.23.57-.23.87a.09.09,0,0,0-.1-.1h-.1v0h-.1c.1.1.2.23.1.33.23.1-.1.2-.23.33a.25.25,0,0,0,.06.13l.07.07c.1-.1.43-.37.43,0a1,1,0,0,1-.56.23,1.59,1.59,0,0,1,.13.73c0,.14.2.34.2.47l-.2-.13a1.21,1.21,0,0,1-.13.66.61.61,0,0,1,.33-.1l-.1-.13a1,1,0,0,0,.33-.77c.1,0,.2.14.33,0s0-.19,0-.43a6.38,6.38,0,0,0,.63-.43c-.23-.17-.46.23-.63,0a.18.18,0,0,0,.2-.2c-.06.07-.2.1-.43.1s-.1-.33-.33-.2v-.33c.23.23.43,0,.56-.1-.13-.43.24-.9,0-1.33.07-.07.2-.1.44-.1-.14-.23.19-.4.19-.77l-.19.24v-.34c-.14,0-.24-.1-.34-.1l-.1.1v-.1h-.33l-.13-.1a.89.89,0,0,0,.56-.13h-.43v-.2l.1.1v-.1Zm-.1,11.61c-.1-.14-.2-.14-.33,0C49.19,34.05,49.29,34.05,49.39,33.85Zm0-16c.1-.1-.1-.44-.2-.3S49.16,18,49.39,17.89Zm.33,12.37c-.1.1-.23.1-.33.23s-.2-.07-.2-.23c0,.1.1.23.1.33s-.23.2-.1.43a.64.64,0,0,1,.43-.53c0,.1.1.2.1.3-.17,0-.23.06-.23.23l.13.1c.1.37-.33,0-.43,0a.21.21,0,0,1,.13.07s0,0,.07,0a.61.61,0,0,1,.1.33h-.2c0,.07,0,.1,0,.1h.07c.23.23.43,0,.56-.1v.1c0-.06.07-.1.2-.1s.1.53.1.1c.37.13.14.33,0,.57l.07.06s.07,0,.17,0c-.24.1-.44.13-.44-.1-.36.1-.53-.14-.76,0s0,.53-.1.76,0,.63.3.63v.67h-.1v.2h.76v-.33h.24l-.24.13a.58.58,0,0,0,.87,0v.2h.76c0-.37-.33-.2-.43-.43h-.1c-.1,0-.13,0-.17,0L51,34c-.1,0-.2.1-.34.1a.7.7,0,0,0-.63,0l.34-.34v-.3h.19c-.23-.13-.39-.33-.63-.23,0-.1.1-.1.2-.2-.23-.23-.5-.13-.86-.23v-.23H50c-.1,0-.13-.1-.16-.1h-.07c.23-.3.43.1.67.1v-.07s0-.07.1-.13.19,0,.33.2a.33.33,0,0,1,.3.13v.2c.13.13.33.13.56,0-.23-.1-.33-.1-.43-.2a.21.21,0,0,1,0-.13,1,1,0,0,0,.07-.2.92.92,0,0,0,.43-.44h.1l.1.2a.21.21,0,0,1,.07-.13l.06-.07a.51.51,0,0,1,0-.53c-.16,0-.16-.1,0-.33h-.23c0,.23.1.3.1.53s-.1.23-.2.23l-.06-.06s0-.07,0-.17c0,.1-.13.33-.13.43-.23-.1-.3,0-.43,0v.1l.23-.1c-.1.24-.23.34-.43.34l-.24-.24v-.2c0-.1-.1-.33-.1-.43l.1.1c0-.1-.1-.1-.1-.2a.45.45,0,0,0-.09.3c0-.1-.07-.2-.24-.3l-.2.2c0-.13-.06-.2-.23-.2v.2a.54.54,0,0,1-.2-.43l.33.1a.79.79,0,0,0-.23-.53c0-.1.1-.2.1-.33s-.1-.2-.1-.3Zm0-2c-.1.34-.7.24-.53.57.07-.1.2-.13.43-.13a.18.18,0,0,1,.2-.2l-.2-.54c-.13.1-.13.3-.13.44Zm-.1-9.51c-.13-.23-.33-.23-.43-.13A.23.23,0,0,0,49.62,18.78Zm.43,14.5a.54.54,0,0,0,.2.43.34.34,0,0,0-.3.14c.1.23-.23.2-.46.3,0-.24.13-.4.13-.64.23.1.33,0,.33-.23Zm-.23-13.43c-.1-.1-.43.1-.2.33C49.72,20.18,49.82,20,49.82,19.85Zm.33-.87c.1-.1-.1-.2-.2-.2C49.72,19,50.05,19.22,50.15,19Zm-.1,9.45h0s0,.06.13.1V29h.24c0,.23-.34.4-.34.63s.34.43.2.67c0-.1.14-.1.14-.2a.88.88,0,0,1-.14-.57h0v-.33a.26.26,0,0,1,.17.06l.07.07a.41.41,0,0,1,.19-.56c0,.13.14.23.14.33v-.2a1.54,1.54,0,0,1,.63.2c.1-.23-.1-.4,0-.63s.27-.44-.1-.44l.1.2c-.37.1-.77.1-.77-.2-.06,0-.1.07-.1.2-.33.34-.43-.1-.53-.2Zm.1-6.52c.1.1.24,0,.34,0-.1-.1-.1-.33-.24-.43C50.15,21.58,50.05,21.81,50.15,21.91ZM50.82,26l-.14-.1c.24.3-.29.43-.53.54,0,.1.1.1.1.19s0,0,.07,0,.07.06.07.1c0-.17,0-.27-.14-.33.43-.11.73,0,1.1-.34-.1,0-.23-.1-.33-.1.1-.1.23-.23.33-.23a1.27,1.27,0,0,1-.53-.1Zm-.33,4.89V31a.22.22,0,0,0-.17.07s0,0-.07,0h.24c0,.37-.1-.2.09-.2-.09-.13-.43-.37-.43,0Zm1.62-2.19c-.23,0-.33-.1-.43-.1v.1h.2V29h.23l-.06.07a.19.19,0,0,0-.07.13l.13.13c-.23,0-.43.1-.66.1v.2c-.1-.1-.2-.1-.33-.2h.23c0-.1-.1-.23-.1-.33h-.13c0,.16.06.23.23.23a.28.28,0,0,1-.2.1H51l.1.2a.62.62,0,0,0-.73.13c.29,0,.29.07.19.44.1,0,.34-.1.44-.1v.2c.23,0,.33-.1.33-.34.37.14.5.24.86.14v-.14l-.1-.1-.13.1-.1-.1c0,.07-.06.1-.2.1-.16-.3.27-.86.43-.33.1-.1.1-.2.2-.3a3.65,3.65,0,0,1,.34.3h-.34v.23c0-.06,0-.1.07-.1h.07v.1h-.07a.39.39,0,0,0-.17.1c.07,0,.1,0,.1.07v.07c-.1.1-.2.33-.33.1a1.12,1.12,0,0,1-.2.33v.3h.43v-.43c.2.09.24.23.1.33H53v.53h-.23c.13.13.13.23.23.33,0-.23.2-.33.33-.43a.29.29,0,0,1,0-.43h-.23c-.1-.17-.23-.2-.43-.1,0-.1.1-.23.1-.33s.23-.2.33-.34a.68.68,0,0,0-.1-.43c0,.23-.1.23-.23.23,0-.23.06-.33.23-.33,0-.36-.3-.46-.53-.23.1,0,.2.13.43.13-.2.17-.43.1-.67-.13l.34-.3c0-.23,0-.33.33-.43-.23-.24-.33.1-.43.2,0-.24-.24-.2-.34-.34Zm-.76-15.17a.31.31,0,0,0-.1.17v.07c-.23.3-.33,0-.43-.14a.78.78,0,0,0-.33.67c.09,0,.19-.1.33-.1a.59.59,0,0,0,.2.43l.1-.13h.56c-.13.13-.2.23-.43.23h.1V15h.1v-.1c.37.1.66-.2.76.1v-.2H53l-.07.07s0,.06,0,.13.2.13.3.13c-.1.1-.2.1-.2.2h.43a1.12,1.12,0,0,1,.2-.33v.87c.13,0,.23-.1.33-.1V16c.1-.13.34-.2.44-.43a.57.57,0,0,1,0-.57c-.24-.2-.24-.4,0-.63l-.2.1v-.2l-.07.07s-.07,0-.17,0h-.2a1,1,0,0,0,.2.33c.1,0,.1.1.24.2-.24-.1-.34-.07-.34.1H54v.23c-.1,0-.1-.1-.2-.1h-.1V15a.54.54,0,0,0-.33-.1c.1-.1.33-.2.2-.43.2-.17.17-.33-.1-.43-.1.43-.5.43-.86.33-.1-.23,0-.67-.34-.67,0,.1-.06.2-.2.34l-.33.1c.1-.1.2-.3.33-.44h-.33a1.09,1.09,0,0,0,0,.57c-.16,0-.23,0-.23-.13l-.1-.1v.23c-.1,0-.33.1-.43.1a1.23,1.23,0,0,1,.33-.43ZM50.82,20c0-.23,0-.2-.24-.2C50.58,19.85,50.58,20,50.82,20Zm0,13.66c.1-.23.1-.53-.14-.63A.51.51,0,0,0,50.82,33.61Zm1.23-6.78L52,26.9h-.3a.89.89,0,0,0,.1.53h-.23v-.1a.61.61,0,0,0-.43-.1c.13,0,.33-.1.43-.1l-.1-.13c-.1.13-.33,0-.43-.1h-.1c.1.1.2.1.33.23a2.6,2.6,0,0,1-.33.43.42.42,0,0,1,.33-.23c.1.1.1.23.2.33a.54.54,0,0,1-.33-.1V28c-.14,0-.2,0-.2-.13,0,.23.2.23.33.33v-.53l.2.2c0-.07.07-.1.23-.1v.33l.07.07s.07,0,.13,0v.1l-.33-.1.23.34H52c-.1-.37.23-.54.13-.77v.33c-.13,0-.23-.1-.33-.1a.52.52,0,0,0,.1-.33h.33l-.06-.06s0-.07,0-.17a.26.26,0,0,0,.2-.1c-.1,0-.1-.1-.2-.1.1-.1.2-.1.34-.23a.35.35,0,0,1-.24-.1.46.46,0,0,0,.44-.33c-.24,0-.3.09-.54.09A.26.26,0,0,1,52.05,26.83Zm-1,4.09a.91.91,0,0,1,.43.1c-.37,0-.43.2-.53.43.1,0,.2-.1.43-.1-.17,0-.23-.06-.23-.23.13,0,.23-.1.33-.1v.2l.1-.07a.11.11,0,0,0,0-.13c-.3-.1-.13-.43.23-.33-.1,0-.2-.07-.33-.2-.1.1-.2.3-.33.3,0-.24.16-.4-.2-.63A1.67,1.67,0,0,1,51,30.92Zm-.07.8a.26.26,0,0,1,.07.16c.23-.1.23-.33.33-.43-.1.1-.33.1-.43.2S50.92,31.69,51,31.72ZM51,33.08c.1.1.1.2.23.33v.3l.1-.1.1-.2.07.07s.06,0,.16,0c-.1,0-.13,0-.16,0l-.07-.07.07-.06.16-.17a.64.64,0,0,0-.43.1l.1-.2Zm.1-15.92a.5.5,0,0,1,.33.19c.1-.09.23-.19.23-.33a.25.25,0,0,0-.13-.2C51.45,17.06,51.35,17,51.12,17.16Zm.23,13.1a.22.22,0,0,1-.07.16s0,0,0,.07h.1Zm.33,3.89c.1-.24-.13-.4-.13-.64-.13.14-.2.24-.2.34A2.71,2.71,0,0,0,51.68,34.15Zm.1-10.51V24c.1,0,.1.1.2.1,0,.37-.43.1-.53.1,0,.37,0,.53.23.77h.43c-.13.23-.43.13-.66.23.1.1.1.2.23.33v.1h.2l.1-.1c.23,0,.57-.2.57-.43.23,0,.33.2.43.3a.64.64,0,0,1-.1.43h.3c0-.23.13-.4,0-.63a1,1,0,0,0,.33.2v.23l.1-.1c.1.17.27.17.43,0-.1.1-.1.2-.2.3.1.13.14.43-.1.43s-.33,0-.43.24a.27.27,0,0,1,.43,0c.1-.11.1-.24.2-.34s.34.1.44,0c-.1,0-.2-.1-.34-.1v-.1c.37.1-.13-.33.14-.43,0-.13-.24-.2-.24-.43a.62.62,0,0,1,.44.2v-.1l-.1-.1c-.1,0-.1-.23-.1-.33h.2c-.1-.1-.1-.24-.34-.24v0l.07.07a.27.27,0,0,1,.07.17c0,.1-.14.1-.14.2-.23-.1-.2-.3-.2-.54,0,.24-.06.34-.23.34,0,.1.13.1.13.2a.26.26,0,0,0-.16.06l-.07.07h.23v.1c-.36.1-.43-.33-.66-.43a.68.68,0,0,1-.43.1,1.81,1.81,0,0,0-.54.33.45.45,0,0,1,.1-.33v-.07s-.06,0-.1-.13h.2v.2a3.43,3.43,0,0,1,.44-.34c-.1-.1-.3,0-.3-.1s.06-.23.2-.23-.07-.17-.2-.3c.16.1.6.23.43-.13-.23.13-.43,0-.33-.3-.24,0-.44.07-.34.43C52.11,23.74,52,23.54,51.78,23.64Zm0,6.72c0-.24-.1-.2-.23-.2C51.55,30.39,51.55,30.36,51.78,30.36Zm-.06-15.13s0,0,0,.06l.14.17.06.07c.1-.14.23-.24.23-.34a.61.61,0,0,0-.33-.1A.28.28,0,0,1,51.72,15.23ZM52,20.51c0,.14,0,.2-.1.2.23,0,.67,0,.43-.33s-.86.23-.33.23Zm.47,5.09c.23.1,0,.33-.24.43l-.33-.33a.54.54,0,0,0,.57.33v.33a.32.32,0,0,0,.43.11v.33c.27-.27-.13-.7.2-.87l-.33.2v-.2h-.2c.1-.23.33-.56.1-.66C52.65,25.5,52.68,25.6,52.45,25.6ZM52,27.23c.23,0,0,.33-.1.1Zm.57-3.06c-.37,0-.47.1-.24.33H52c.23-.1.13-.3,0-.53C52.21,24,52.31,24.07,52.55,24.17Zm-.24,2.19c-.1,0-.33.11-.2.21S52.45,26.6,52.31,26.36Zm0-7.58c.14,0,0-.33-.1-.33S52.08,18.78,52.31,18.78Zm0-4.45c0,.23-.1.2-.2.2S52.08,14.33,52.31,14.33Zm0,20.48h-.1a.67.67,0,0,0-.1.43.34.34,0,0,1,.2-.1c0,.1.14.2.14.34v-.34h.3l-.07-.06a.21.21,0,0,0-.13-.07c.06,0,.1-.07.1-.2s-.44,0-.2.2C52.35,35,52.31,34.94,52.31,34.81Zm0-3.46h.34a1.63,1.63,0,0,1-.44-.43C52.11,31.15,52.21,31.22,52.31,31.35Zm-.1-11.93a.71.71,0,0,0,.44.1c0,.23-.14.43.23.56l-.13-.23h.33c-.07,0-.1,0-.1-.1v-.1h.2c-.1-.13-.2-.47-.43-.23,0-.24.13-.44.43-.2-.1-.44-.43,0-.53.1C52.75,18.78,52.58,19.52,52.21,19.42Zm.24.76c.1-.1.23-.43,0-.43S52.31,20.18,52.45,20.18Zm0,8.11a.64.64,0,0,1,.43-.1c-.13-.1-.1-.43-.33-.43a.56.56,0,0,1,.2-.43.23.23,0,0,0-.44.1C52.68,27.66,52.55,28,52.45,28.29Zm.3-1.06a.91.91,0,0,0,.23.43h0s.07,0,.07-.1-.1-.33-.2-.43c.23,0,.4-.13.63.1,0-.1-.1-.33,0-.43h-.33a.28.28,0,0,0-.2.1C52.75,26.8,52.45,27.13,52.75,27.23Zm0-2.59h.33V24.5c0-.13.07-.2.23-.2H53c-.1-.13-.23-.13-.23-.23,0,.23,0,.23.13.33Zm.13-1.53v.1c.1,0,.43-.14.2.23a.4.4,0,0,0,.1.3H53c0,.16.07.23.2.23a3.06,3.06,0,0,1,.56-.33c-.16,0-.23,0-.23-.1v-.1h.23c0-.13-.13-.23-.13-.33.1.46-.53.43-.43,0Zm.3,11.9c0-.23-.2-.2-.3-.2C52.88,35,53.08,35,53.18,35Zm.43-8.88c0-.1-.1-.2-.1-.33v.33a.09.09,0,0,0-.1-.1h-.1l.1-.23c-.1.13-.33.23-.43.33Zm-.3-11.27c-.23.1-.33,0-.23-.1S53.31,14.63,53.31,14.86Zm.2,13.57h.1c-.13.13-.2.23-.2.3s-.13,0-.17,0l-.06-.06v.43h-.1a1.16,1.16,0,0,0,.23.43v-.2h-.13v-.56a.63.63,0,0,0,.43.23c0-.23,0-.37.13-.43-.13-.1-.13-.24-.23-.34Zm0,2.69h.23l.1.1c-.23,0-.33.2-.43.43l-.07-.06a.2.2,0,0,1,0-.14,6.06,6.06,0,0,0-.23.63h.23l-.07.07a.26.26,0,0,0-.06.17h.13v.2s0,0,0-.07a.21.21,0,0,0,.07-.13c.1.1.1.2.2.33.17-.17.27-.23.33-.23.24-.1.44,0,.44-.34a.79.79,0,0,1-.54.14v-.34H54c-.1,0-.1-.1-.13-.1h-.07v.1h-.23a1.14,1.14,0,0,1,.13.64,1.59,1.59,0,0,0-.43-.3,3.65,3.65,0,0,1,.3-.34.22.22,0,0,1,.07-.16l.06-.07h.2c-.06,0-.1,0-.13,0l-.07-.07c.1-.23.3-.4.2-.63s.1-.23.24-.33a.67.67,0,0,1-.77-.1C53.64,30.72,53.74,30.89,53.51,31.12Zm-.33,5.22c.13.1.36-.33.13-.33S53,36.21,53.18,36.34Zm.13-12.8h.1v-.1h-.1Zm0,6.05c0,.13.1.23.1.33h-.1v.14h.2v-.14c0-.06.07-.16.23-.33Zm.63,4.56c0,.36-.3.23-.53.23,0,.1.1.1.1.2a.44.44,0,0,1,.33-.1c-.1,0-.23.23-.23.33v-.23c-.1.13-.3.23-.3.33s.1.1.1.23.2-.13.33-.13c-.13.13-.23.13-.23.23h.23c0-.36.44-.23.54-.33H54v-.76Zm-.53-15.37a1.39,1.39,0,0,1,.63.1c.24-.1.34-.1.34-.33-.24.1-.44.1-.54.23v-.33c-.1-.23-.33,0-.23.2C53.48,18.65,53.41,18.68,53.41,18.78Zm.87-3.39c-.1.24-.44.24-.54.34a1,1,0,0,1,.1-.54C53.94,15.09,54.18,15.39,54.28,15.39Zm0,18.12h-.14a.09.09,0,0,1-.1-.1v.2a.45.45,0,0,0-.3.1H54a1,1,0,0,0,.43.24c0,.1,0,.2.24.2s.2-.2.33-.3c-.13,0-.33.1-.43.1s0-.14,0-.17l.07-.07a.9.9,0,0,1-.43-.43Zm0,2.27c.1-.24-.44-.54-.54-.3C54,35.57,54,35.68,54.28,35.78Zm-.34-2.7c.07,0,.1-.1.1-.33a.44.44,0,0,0,.34-.23c-.24,0-.34.13-.44.13Zm.1-9.87v.1l.14-.1Zm.77,11.37c.1-.1.23-.1.33-.2a.68.68,0,0,0-.43-.1C54.61,34.38,54.81,34.48,54.81,34.58Zm.66,0c0-.14,0-.2-.1-.2C55.24,34.61,55.37,34.58,55.47,34.58ZM55.8,13.9c.14,0,.2-.07.2-.24h-.1c-.1.14-.1.24-.23.24.13.23.33.2.43.33.14-.13.14-.23.24-.23h.33c-.13-.1-.13-.2-.23-.44C56.44,13.93,56,13.9,55.8,13.9Zm-.13,1.39c.23.1,0,.34.13.44a.18.18,0,0,0,.2-.2l.1.1v-.24a.41.41,0,0,0-.3-.1ZM56.1,34l-.1-.1a.84.84,0,0,0,.54.3v-.44h.13a.91.91,0,0,1-.13.57c-.3,0,0,.3.13.53a.29.29,0,0,0,.1-.23h-.23c-.1-.1.13-.3.23-.43a.3.3,0,0,1,0-.44c-.23-.1-.43,0-.67.14Zm.14,0v0Zm.53-18.12a.22.22,0,0,0-.33,0C56.24,16.19,56.77,16,56.77,15.83Zm.43,2.49h-.06a.28.28,0,0,1-.17-.1c-.1.1-.2.1-.2.23h.53c0-.13.1-.23.1-.33s-.2-.1-.2-.23ZM57.4,14c-.1,0-.2,0-.1.23C57.4,14.23,57.53,14.1,57.4,14Zm.23.66c.1-.23-.23-.43-.33-.33S57.53,14.66,57.63,14.66Zm.77,4.12c.1-.13-.1-.33-.23-.33C57.8,18.68,58.3,18.88,58.4,18.78Zm.1,15.93h.23a.21.21,0,0,1-.07.13l-.06.07a1.32,1.32,0,0,0,.56-.1L59,35h.13a.33.33,0,0,0-.13-.3h-.2l.07-.07.13-.16a1.27,1.27,0,0,1-.53.1ZM59,18.45l-.1.07s-.1,0-.2,0a1,1,0,0,0,.53-.1v.2c.24,0,.4-.1.63,0-.23-.1,0-.3,0-.53-.1.1-.19.33-.43.33V18c0,.3-.26.1-.63.2C58.93,18.32,59,18.32,59,18.45ZM59.46,15v.13c-.23,0-.3.1-.43.1.23,0,.57.14.67-.23Zm.33,0c.1-.1,0-.43-.09-.43C59.46,14.66,59.56,14.86,59.79,15Zm-.09.43H60v-.2a1.25,1.25,0,0,1,.86.1c-.1-.1-.23-.2-.23-.33h.13c0-.07,0-.1-.13-.1h-.1a.68.68,0,0,0-.43.1c0-.1.2-.2.33-.2a.25.25,0,0,1-.13-.23,2.71,2.71,0,0,1-.3.33C60.13,15.09,59.93,15.16,59.7,15.39Zm.53,1.77c.23-.14,0-.47-.1-.24C60,16.92,60.13,17.26,60.23,17.16Zm-.1-2.2h.2v.13h-.2ZM61,19.32v.2s0,0-.06,0a.28.28,0,0,0-.14-.06c-.13,0-.23-.1-.33-.1s-.07.2-.23.2a1.91,1.91,0,0,0,.66.43c.1-.1.1-.2.33-.3v-.33Zm-.1-1.1c0,.07,0,.1-.1.1s-.23.13-.33.23h1c.1-.23-.1-.33-.2-.23v.13c-.23,0-.23-.23-.33-.33Zm-.23-1.73c.17,0,.17-.07,0-.2C60.56,16.39,60.43,16.49,60.66,16.49Zm1-.66a.56.56,0,0,0-.44.23l-.13-.23c-.1,0-.1-.1-.2-.1h-.06s0,0,0,.1,0,0,.07,0,0,0,.13.1.33,0,.43.2c-.1,0-.33.13-.43,0,0,.1,0,.13,0,.16l.06.07-.2.1a.68.68,0,0,0,.43-.1c.1-.23.17-.56.54-.43,0-.13-.2-.67-.2-.23h-.24v-.2a.68.68,0,0,1-.43.1A1.77,1.77,0,0,1,61.66,15.83Zm-.4,1.69a.26.26,0,0,1,.06.17.58.58,0,0,0-.43.2c.1.13.3.13.53.23,0,.1.1.1.24.2,0-.07,0-.1,0-.1h.07c0-.07,0-.1-.07-.1h0c.3-.1,0-.23-.14-.33V18l-.1-.07a1.2,1.2,0,0,0-.2-.06c.1-.1.3-.1.2-.2s-.06-.24-.2-.24S61.22,17.49,61.26,17.52Zm-.17,15v-.3c-.1.1-.1.2-.2.3S61,32.68,61.09,32.52Zm.33-17.33c-.1.1-.2.1-.33.2a1.17,1.17,0,0,0,.57-.1s0,0,0-.06,0,0-.1-.14Zm-.1,17.33.2.13v-.33c-.23,0-.2.2-.3.43C61.32,32.75,61.42,32.75,61.32,32.52ZM64,16.82a.84.84,0,0,0,.33.2v.14l-.1-.14v.24c-.1,0-.13-.1-.17-.1H64a2.41,2.41,0,0,0-.43.73h.33a.75.75,0,0,1-.43.13c-.1.23-.44.07-.44.3s0,.13-.13.13a.06.06,0,0,1-.1,0v-.13h-.1v-.2l-.1-.1h-.23c0-.13.13-.13.23-.23a1.62,1.62,0,0,0-.33-.53.18.18,0,0,0,0,.13l.07.06c-.23-.1-.43.14-.53.14h.23l-.13.2c.23.1.43.43.66.53s.1.23,0,.33a4.81,4.81,0,0,1,1.2,0s0,0,0-.06a.31.31,0,0,0,.07-.14c.1.1.1.2.23.2a.67.67,0,0,1,.43-.1,3.9,3.9,0,0,1,.1-.53c.24-.23.33-.13.33.1-.16,0-.23.07-.23.2s0,0,0,0,.06.07.06.1-.06-.13-.2-.13v.33c.24,0,.53.13.77.13s.2-.13.3-.13c0-.23,0-.36.13-.43H66v-.1c-.1,0-.43-.27-.43.1l-.1-.1v.2c-.37.13-.1-.3-.34-.43v-.54c-.1.1-.23.24-.23.34-.1-.1-.3-.2-.2-.43a.26.26,0,0,0-.16.06s0,0-.07,0l-.1-.09c.23,0,.33-.1.43-.1,0,.29.43,0,.53-.14,0,.1,0,.14-.1.14s-.06,0-.1,0a.48.48,0,0,0-.23-.44l-.1.1c-.1-.1-.1-.23-.2-.33,0,.1-.13.1-.13.23S64.15,16.82,64,16.82Zm-1.63,3.89v-.33c.13.13.33.13.56.23a.64.64,0,0,0-.43.1c0,.1.1.44-.13.53,0-.23-.1-.29-.1-.43v.34h-.1a.19.19,0,0,1,0,.13c0,.06,0,.1,0,.1h.1v.33c0-.17.07-.23.23-.23a3.9,3.9,0,0,1,.1.53h-.1c0,.23.1.33.2.56v-.23l.07.07s.06,0,.16,0h.2c.1-.1.34,0,.44,0-.1-.23-.34-.3-.2-.43h.43c-.1-.1-.23-.2-.23-.3h.33l-.14-.17-.06-.06c.16-.43-.67-.1-.57-.53.24.23.44,0,.57-.14v-.3c-.13.24-.33.1-.57,0l-.06.07s0,.07,0,.13c0-.13-.06-.2-.23-.2a1,1,0,0,0-.86,0C62.19,20.61,62.29,20.71,62.39,20.71Zm.13-.76a.42.42,0,0,0-.13.33h.43c.23,0,.43.23.43,0a.64.64,0,0,0-.43-.1c.13-.1.23-.1.33-.23-.23,0-.43.13-.43-.1s-.2-.1-.33-.2A.33.33,0,0,1,62.52,20Zm.3,1.53a.31.31,0,0,1-.43-.24C62.52,21.24,62.82,21.38,62.82,21.48Zm-.1.43c.1.1.3.1.53.1s0,.33-.1.43a1.16,1.16,0,0,0-.33-.43v.33l-.2-.2h.1Zm.53,10.17a.86.86,0,0,1-.53.44c0,.13.1.23.1.33.1-.17.27-.17.43,0-.1.1-.16.13-.2.13S63,33,63,33h.1v.2c.1,0,.2-.1.34-.1,0-.16-.07-.23-.24-.23a1.23,1.23,0,0,1,.34-.43c-.1,0-.1.1-.24.1a.28.28,0,0,0-.06-.14s0,0,0-.06h.34ZM63.05,18c.07-.1,0-.13-.1-.13S63,18.12,63.05,18Zm.1,14.4-.06.06s0,.07,0,.17C62.82,32.75,62.92,32.32,63.15,32.42Zm0-3c.1-.23,0-.23-.1-.23C63,29.39,63.05,29.49,63.15,29.39Zm.24-7.48c-.24.1-.24,0-.24-.1C63.39,21.71,63.39,21.81,63.39,21.91Zm.1-5.42c.1-.1.29-.1.53-.33-.24.13-.3,0-.53,0Zm.19,16.26h-.09s0,.1-.07.2a.21.21,0,0,0,0,.13l.1-.1c.23.3.23-.1.23-.33C63.82,32.72,63.78,32.75,63.68,32.75Zm.14-9.11c-.23-.1-.33.23-.23.33S63.92,23.74,63.82,23.64Zm0-5.19c0,.07-.07.1-.23.1C63.59,18.45,63.59,18.32,63.82,18.45ZM64,32.52c.13-.24-.2-.3-.3-.2S63.92,32.65,64,32.52Zm.56-11.28c-.36-.16-.56.5-.23.57h-.43c.1.1.2.43.43.33,0,.24-.1.3-.2.43h-.23v-.43c0,.1-.1.1-.1.2a3.77,3.77,0,0,1,.43.77v-.24h.2c-.1-.1-.2-.1-.43-.2a3.42,3.42,0,0,0,.33-.33c0-.06.07-.16.23-.33a.92.92,0,0,1,.53,0v.23a.88.88,0,0,0,.54-.43h-.34v-.1h.24l-.1-.13-.14.13-.1-.23c-.23.1-.39-.24-.63-.33H65c-.13-.1-.19-.34-.43-.2Zm-.43.14c0-.17,0-.27-.13-.33s-.2.19-.1.33S64.15,21.61,64.15,21.38Zm.53.76v.2h-.23a.84.84,0,0,1,.23.23c.1-.13.43-.19.33-.43Zm-.1,9.21c.24,0,.34-.33.1-.33A.48.48,0,0,0,64.58,31.35Zm.43-7c0-.16,0-.2-.13-.13S64.85,24.3,65,24.3Zm.54-1.73a.44.44,0,0,0-.34-.23c0,.1-.1.23-.1.33s.1.1.2.1a.25.25,0,0,0-.06-.13s0,0,0-.07.34.1.34.2.1,0,.1,0v-.07c-.1-.1,0-.33-.1-.43Zm.2,6.39c.13-.1-.1-.23-.2-.23C65.31,29,65.65,29.06,65.75,29Zm.13-5c-.17,0-.23.07-.23.2s0,0,.06,0,.07,0,.17.1v.1l.1-.1a.5.5,0,0,0-.23-.43.6.6,0,0,1,.43-.13v-.1c-.23,0-.53,0-.63.1C65.65,23.87,65.65,24,65.88,24Zm.1-2.16c-.1,0-.33.2-.23.33S66.08,22,66,21.81Zm0,6.92h.43c-.1-.1-.1-.2-.23-.2h.33c-.1-.1-.2-.24-.33-.24C66.18,28.53,66.21,28.73,66,28.73Zm1.53,1a.19.19,0,0,0-.33-.13C67.08,29.82,67.51,30,67.51,29.72Zm.2-7.48c-.07,0-.1.07-.1.2a.33.33,0,0,1,.43-.1l.2-.2c-.3.1-.5-.13-.73-.23C67.61,22,67.61,22.14,67.71,22.24Z" style="fill: #e7326e"/>
          </g>
          <g>
            <path d="M68.61,46a7,7,0,0,0,7-7V12.46a7,7,0,0,0-7-7" style="fill: none;stroke: #009ee2;stroke-miterlimit: 10;stroke-width: 0.526869654655457px"/>
            <path d="M7.25,5.47a7,7,0,0,0-7,7V39a7,7,0,0,0,7,7" style="fill: none;stroke: #009ee2;stroke-miterlimit: 10;stroke-width: 0.526869654655457px"/>
            <path d="M20.57,2.86A2.6,2.6,0,0,0,18,.25h.15a2.61,2.61,0,0,0-2.61,2.61" style="fill: none;stroke: #009ee2;stroke-miterlimit: 10;stroke-width: 0.5px"/>
          </g>
        </g>
        <g>
          <path d="M94.48,25.22h7.4v.93h-7.4V32h-1V19.1h8.65v1H94.48Z" style="fill: #009ee2"/>
          <path d="M103.73,27.44a4.61,4.61,0,1,1,9.22,0,4.61,4.61,0,1,1-9.22,0Zm8.33,0a3.73,3.73,0,1,0-7.45,0,3.73,3.73,0,1,0,7.45,0Z" style="fill: #009ee2"/>
          <path d="M116.91,20.15v2.73H120v.76h-3.08v5.52c0,1.23.26,2.09,1.67,2.09a3.3,3.3,0,0,0,1.39-.36l.32.73a3.91,3.91,0,0,1-1.71.46c-1.93,0-2.55-1.14-2.55-2.92V23.64H114.1v-.76H116V20.24Z" style="fill: #009ee2"/>
          <path d="M121.64,27.44a4.61,4.61,0,1,1,9.22,0,4.61,4.61,0,1,1-9.22,0Zm8.34,0a3.73,3.73,0,1,0-7.46,0,3.73,3.73,0,1,0,7.46,0Z" style="fill: #009ee2"/>
          <path d="M140.22,22.52l.58.51-.88,1A4.21,4.21,0,0,1,141,27.14,4.28,4.28,0,0,1,138.6,31a3.32,3.32,0,0,1,2.48,3.25c0,2.44-1.91,3.61-4.31,3.61s-4.3-1.32-4.3-3.61h.9c0,1.85,1.58,2.73,3.4,2.73s3.43-.81,3.43-2.73-1.75-2.72-3.43-2.72a4.16,4.16,0,0,1-4.26-4.39,4.12,4.12,0,0,1,4.26-4.42,4.67,4.67,0,0,1,2.57.82Zm-6.81,4.62a3.32,3.32,0,0,0,3.36,3.49,3.48,3.48,0,0,0,3.39-3.49,3.26,3.26,0,0,0-3.39-3.52A3.2,3.2,0,0,0,133.41,27.14Z" style="fill: #009ee2"/>
          <path d="M143.74,22.88l0,1.62a3.18,3.18,0,0,1,3-1.71,3.57,3.57,0,0,1,1.94.53l-.4.74a2.86,2.86,0,0,0-1.54-.42,3,3,0,0,0-3,3V32h-.9V22.88Z" style="fill: #009ee2"/>
          <path d="M158.81,22.88V32h-.9V30a4.23,4.23,0,0,1-3.71,2.08,4.54,4.54,0,0,1-4.61-4.68,4.52,4.52,0,0,1,4.61-4.65,4.11,4.11,0,0,1,3.71,2.1v-2Zm-8.32,4.54a3.64,3.64,0,0,0,3.71,3.8c5.05,0,5.05-7.58,0-7.58A3.62,3.62,0,0,0,150.49,27.42Z" style="fill: #009ee2"/>
          <path d="M162.18,32v-8.2h-1.85V23h1.85v-.81c0-1.8.72-3.1,2.72-3.1a3,3,0,0,1,1.8.62l-.44.66a2.54,2.54,0,0,0-1.4-.46c-1.14,0-1.8.7-1.8,2.28V23h3v.79h-3V32Z" style="fill: #009ee2"/>
          <path d="M169.17,19.93a.73.73,0,0,1-1.45,0A.73.73,0,0,1,169.17,19.93ZM168,22.85V32h.9v-9.1Z" style="fill: #009ee2"/>
          <path d="M180.17,22.88V32h-.9V30a4.23,4.23,0,0,1-3.71,2.08A4.54,4.54,0,0,1,171,27.42a4.52,4.52,0,0,1,4.61-4.65,4.11,4.11,0,0,1,3.71,2.1v-2Zm-8.32,4.54a3.65,3.65,0,0,0,3.71,3.8c5.05,0,5.05-7.58,0-7.58A3.63,3.63,0,0,0,171.85,27.42Z" style="fill: #009ee2"/>
        </g>
      </g>
    </g>
  </g>
</svg>
